<svg xmlns="http://www.w3.org/2000/svg" viewBox="0 0 500 500"><g id="freepik--light-bulb--inject-2"><path d="M257.65,92.1a24.38,24.38,0,1,0-33.27,24.25c.19,2.88.4,6.14.4,6.14l21.32-1.38s-.09-3.45-.25-6.53A24.36,24.36,0,0,0,257.65,92.1Z" style="fill:#233DFF"></path><path d="M238.38,121.51s0-.11,0-.3,0-.51,0-.89c0-.77.11-1.92.23-3.39s.29-3.28.62-5.35a36.91,36.91,0,0,1,1.77-6.92,23.64,23.64,0,0,1,1.77-3.77,4.53,4.53,0,0,1,1.57-1.6,2.51,2.51,0,0,1,2.31-.07,1.65,1.65,0,0,1,.83.91,1.67,1.67,0,0,1,0,1.26,3.49,3.49,0,0,1-1.77,1.74A6.7,6.7,0,0,1,237,99.26a5.12,5.12,0,0,1-.33-2.8,2.19,2.19,0,0,1,2.11-1.83,1.54,1.54,0,0,1,1.29.78,2.19,2.19,0,0,1,.29,1.48,4.78,4.78,0,0,1-1.55,2.53,7.24,7.24,0,0,1-5.57,2,6.34,6.34,0,0,1-4.93-3.2,3.69,3.69,0,0,1-.35-2.94,1.78,1.78,0,0,1,2.5-1.1,2.48,2.48,0,0,1,1.1,1,3.88,3.88,0,0,1,.46,1.38,6.93,6.93,0,0,1-.19,2.8,7.24,7.24,0,0,1-3.17,4.3,7.38,7.38,0,0,1-5,1,3.89,3.89,0,0,1-2.26-1,1.88,1.88,0,0,1-.29-2.33,1.61,1.61,0,0,1,1.06-.61,2.37,2.37,0,0,1,1.18.15,3.48,3.48,0,0,1,1.59,1.58c.7,1.28,1.27,2.53,1.85,3.72,2.26,4.78,3.9,8.73,5,11.47.55,1.37,1,2.44,1.24,3.16.13.36.23.64.31.83a2.19,2.19,0,0,1,.09.29l-.12-.28-.34-.81-1.29-3.15c-1.14-2.72-2.81-6.66-5.09-11.42-.58-1.18-1.17-2.45-1.86-3.7a3.29,3.29,0,0,0-1.48-1.47,1.68,1.68,0,0,0-1.95.38,1.65,1.65,0,0,0,.28,2,3.62,3.62,0,0,0,2.11.93,7.11,7.11,0,0,0,4.81-1,7,7,0,0,0,3-4.14,6.6,6.6,0,0,0,.18-2.69,2.63,2.63,0,0,0-1.39-2.15,1.52,1.52,0,0,0-1.27,0,1.55,1.55,0,0,0-.83,1,3.39,3.39,0,0,0,.33,2.7,6.07,6.07,0,0,0,4.7,3,6.93,6.93,0,0,0,5.33-1.93A4.51,4.51,0,0,0,240,96.85a1.93,1.93,0,0,0-.25-1.29,1.28,1.28,0,0,0-1.05-.64,1.77,1.77,0,0,0-1.19.47,2,2,0,0,0-.62,1.13,4.79,4.79,0,0,0,.31,2.64,6.43,6.43,0,0,0,8.4,3.73,3.24,3.24,0,0,0,1.64-1.6,1.44,1.44,0,0,0-.68-1.85,2.27,2.27,0,0,0-2.09.06A4.34,4.34,0,0,0,243,101a23.63,23.63,0,0,0-1.76,3.72,36.46,36.46,0,0,0-1.8,6.86c-.35,2.07-.54,3.87-.68,5.34s-.21,2.6-.28,3.39c0,.37-.06.67-.07.88S238.38,121.51,238.38,121.51Z" style="fill:#263238"></path><path d="M244.71,125.16l-18.3,1.19a1.39,1.39,0,0,1-1.47-1.29h0a1.38,1.38,0,0,1,1.29-1.46l18.31-1.18A1.37,1.37,0,0,1,246,123.7h0A1.38,1.38,0,0,1,244.71,125.16Z" style="fill:#263238"></path><path d="M244.79,126.36l-18.31,1.19a1.37,1.37,0,0,0,.18,2.74l2-.13,3,4.91a1.79,1.79,0,0,0,1.63.84l6.54-.42a1.81,1.81,0,0,0,1.51-1.06l2.26-5.23,1.37-.09a1.38,1.38,0,0,0-.18-2.75Z" style="fill:#263238"></path><g style="opacity:0.2"><path d="M216.69,79.18a17.72,17.72,0,0,1,4.67-3.55A13.17,13.17,0,0,1,225,74.29c.92-.15,1.45-.1,1.51.09.13.44-1.67,1.21-4,3a20.06,20.06,0,0,0-7.85,20.24c.53,2.95,1.34,4.73,1,5-.18.11-.6-.21-1.17-.94a12.65,12.65,0,0,1-1.82-3.47,17.84,17.84,0,0,1-1-5.76,19,19,0,0,1,1.25-7.15" style="fill:#fff"></path></g><g style="opacity:0.2"><path d="M232.45,75.06c-1.54.08-2.93-.25-3.14-1.06-.09-.4.17-.85.7-1.22a4.94,4.94,0,0,1,4.6-.28c.58.31.88.73.84,1.14" style="fill:#fff"></path></g><path d="M241,134.88a10.67,10.67,0,0,1-1.29-.31,10.66,10.66,0,0,0-3.13-.19,10.8,10.8,0,0,0-3,.77c-.74.32-1.18.58-1.2.54a3.71,3.71,0,0,1,1.11-.73,9,9,0,0,1,3.1-.87,8.84,8.84,0,0,1,3.21.28A3.87,3.87,0,0,1,241,134.88Z" style="fill:#455a64"></path><path d="M243.65,129.26c0,.08-3.3.36-7.39.63s-7.39.41-7.4.32,3.3-.36,7.38-.62S243.64,129.18,243.65,129.26Z" style="fill:#455a64"></path><path d="M242.64,131.51a11,11,0,0,1-1.79.29c-1.11.15-2.65.31-4.36.45s-3.25.21-4.37.24a10,10,0,0,1-1.81,0,10.08,10.08,0,0,1,1.8-.2l4.36-.33,4.36-.36A10.67,10.67,0,0,1,242.64,131.51Z" style="fill:#455a64"></path></g></svg>