<svg width="500" height="500" viewBox="0 0 500 500" fill="none" xmlns="http://www.w3.org/2000/svg">
<path d="M242.94 53.8602C117.63 41.3802 45.1102 114.74 32.0002 237C19.2202 355.63 48.1302 460.77 167.44 460.77C205.23 460.77 249.52 436.33 292.44 423.77C385 396.77 464.74 398.47 471.03 277.64C477.87 145.62 361.67 65.6802 242.94 53.8602ZM81.0002 233C74.5502 233 74.5702 223 81.0002 223C87.4302 223 87.4302 233 81.0002 233Z" fill="#233DFF" fill-opacity="0.2"/>
<path opacity="0.75" d="M242.94 53.8602C117.63 41.3802 45.1102 114.74 32.0002 237C19.2202 355.63 48.1302 460.77 167.44 460.77C205.23 460.77 249.52 436.33 292.44 423.77C385 396.77 464.74 398.47 471.03 277.64C477.87 145.62 361.67 65.6802 242.94 53.8602ZM81.0002 233C74.5502 233 74.5702 223 81.0002 223C87.4302 223 87.4302 233 81.0002 233Z" fill="#233DFF" fill-opacity="0.2"/>
<path d="M119 442L398 440.97" stroke="#263238" stroke-linecap="round" stroke-linejoin="round"/>
<path d="M159.18 432.2H146.35C143.386 432.201 140.531 431.088 138.349 429.082C136.167 427.076 134.818 424.324 134.57 421.37L132 395.74H173.46L171 421.37C170.749 424.33 169.394 427.086 167.204 429.093C165.014 431.099 162.15 432.208 159.18 432.2Z" fill="white"/>
<mask id="mask0_132_123" style="mask-type:luminance" maskUnits="userSpaceOnUse" x="132" y="395" width="42" height="38">
<path d="M159.18 432.2H146.35C143.386 432.201 140.531 431.088 138.349 429.082C136.167 427.076 134.818 424.324 134.57 421.37L132 395.74H173.46L171 421.37C170.749 424.33 169.394 427.086 167.204 429.093C165.014 431.099 162.15 432.208 159.18 432.2Z" fill="white"/>
</mask>
<g mask="url(#mask0_132_123)">
<path d="M172 410.53L172.14 410.34C172.2 410.2 172.34 409.9 172.38 409.77C172.42 409.64 172.45 409.41 172.48 409.23C172.51 409.05 172.48 409.15 172.48 409.11C172.56 408.41 172.62 407.7 172.72 407H133.4C133.913 408.117 134.04 409.373 133.76 410.57V410.62C133.76 410.95 133.76 411.27 133.76 411.62C133.76 411.74 133.76 411.86 133.76 411.98V412C133.88 412.37 133.88 412.4 133.76 412.12V412.17C133.976 412.744 134.104 413.348 134.14 413.96H171.47C171.31 413.383 171.275 412.779 171.366 412.188C171.457 411.597 171.673 411.031 172 410.53Z" fill="#233DFF"/>
</g>
<path d="M159.18 432.2H146.35C143.386 432.201 140.531 431.088 138.349 429.082C136.167 427.076 134.818 424.324 134.57 421.37L132 395.74H173.46L171 421.37C170.749 424.33 169.394 427.086 167.204 429.093C165.014 431.099 162.15 432.208 159.18 432.2Z" stroke="#263238" stroke-linecap="round" stroke-linejoin="round"/>
<path d="M159.18 432.2H146.35C144.238 432.203 142.164 431.633 140.35 430.55L140 434.64H165.53L165.18 430.55C163.366 431.633 161.292 432.203 159.18 432.2Z" fill="white" stroke="#263238" stroke-linecap="round" stroke-linejoin="round"/>
<path d="M178 399.45C176.19 399.02 174.48 399.78 172.92 401.24L172.41 406.41C173.83 404.06 175.52 402.41 177.28 402.86C181.05 403.76 182.38 408.56 181.18 413.55C179.98 418.54 175.96 421.83 172.18 420.93L170.98 420.65L170.91 421.37C170.843 422.107 170.712 422.836 170.52 423.55L171 423.66C176.86 425.07 182.92 420.8 184.53 414.11C186.14 407.42 183.89 400.87 178 399.45Z" fill="white" stroke="#263238" stroke-linecap="round" stroke-linejoin="round"/>
<path d="M152.84 428.92C148.67 429.55 144.06 432.98 144.56 436.27C145.06 439.56 150.49 441.47 154.66 440.84C158.02 440.32 158.66 437.49 160.48 435.72C165.83 430.53 186.48 430.62 194.13 430.84C194.484 430.85 194.835 430.782 195.16 430.641C195.484 430.5 195.773 430.29 196.007 430.024C196.241 429.759 196.413 429.446 196.513 429.106C196.612 428.767 196.635 428.409 196.58 428.06C196.479 427.449 196.146 426.9 195.651 426.527C195.156 426.155 194.536 425.987 193.92 426.06C187.56 426.79 169.77 428.94 161.44 431.06C159 431.63 156.21 428.41 152.84 428.92Z" fill="white" stroke="#263238" stroke-linecap="round" stroke-linejoin="round"/>
<path d="M166.67 441.9H137.12C132.626 441.898 128.173 441.039 124 439.37L114.41 435.54C114.181 435.446 113.992 435.276 113.875 435.058C113.757 434.841 113.719 434.589 113.766 434.346C113.813 434.103 113.943 433.884 114.133 433.726C114.324 433.568 114.563 433.481 114.81 433.48H189C189.248 433.481 189.487 433.568 189.677 433.726C189.868 433.884 189.997 434.103 190.045 434.346C190.092 434.589 190.053 434.841 189.936 435.058C189.818 435.276 189.629 435.446 189.4 435.54L179.81 439.37C175.631 441.043 171.171 441.902 166.67 441.9Z" fill="white" stroke="#263238" stroke-linecap="round" stroke-linejoin="round"/>
<path d="M153.49 343.6C152.619 342.147 151.425 340.915 150 340" stroke="#263238" stroke-linecap="round" stroke-linejoin="round"/>
<path d="M152.3 362.09C155.46 355.78 155.81 351.02 155.06 347.57" stroke="#263238" stroke-linecap="round" stroke-linejoin="round"/>
<path d="M147.2 380.89C146.42 376.61 147.03 371.22 150.82 364.8" stroke="#263238" stroke-linecap="round" stroke-linejoin="round"/>
<path d="M154.87 392.92C151.708 390.58 149.302 387.364 147.95 383.67" stroke="#263238" stroke-linecap="round" stroke-linejoin="round"/>
<path d="M164.42 354.83C163.723 353.421 162.663 352.223 161.35 351.36" stroke="#263238" stroke-linecap="round" stroke-linejoin="round"/>
<path d="M163.56 367.86C165.56 363.5 165.85 360.14 165.37 357.62" stroke="#263238" stroke-linecap="round" stroke-linejoin="round"/>
<path d="M165.16 392.92C165.16 392.92 153.55 385.17 161.98 370.85" stroke="#263238" stroke-linecap="round" stroke-linejoin="round"/>
<path d="M143.46 366.81C143.464 365.933 143.335 365.06 143.08 364.22" stroke="#263238" stroke-linecap="round" stroke-linejoin="round"/>
<path d="M140.63 375.54C141.778 373.684 142.628 371.659 143.15 369.54" stroke="#263238" stroke-linecap="round" stroke-linejoin="round"/>
<path d="M143.14 392.92C143.14 392.92 135.3 387.69 139.4 377.97" stroke="#263238" stroke-linecap="round" stroke-linejoin="round"/>
<path d="M217.88 316.47C217.88 316.47 202.75 358.15 207.55 376C212.35 393.85 237.4 388.35 243.55 377.42C249.7 366.49 261.62 326.84 261.62 326.84L249.27 303.09L221.92 309.26L219.3 313L217.88 316.47Z" fill="#858585"/>
<mask id="mask1_132_123" style="mask-type:luminance" maskUnits="userSpaceOnUse" x="206" y="303" width="56" height="85">
<path d="M217.88 316.47C217.88 316.47 202.75 358.15 207.55 376C212.35 393.85 237.4 388.35 243.55 377.42C249.7 366.49 261.62 326.84 261.62 326.84L249.27 303.09L221.92 309.26L219.3 313L217.88 316.47Z" fill="white"/>
</mask>
<g mask="url(#mask1_132_123)">
<path opacity="0.2" d="M246.52 375.39C246.553 374.388 246.864 373.414 247.42 372.58C247.115 372.149 246.925 371.647 246.869 371.122C246.813 370.596 246.893 370.066 247.1 369.58C248.79 363.58 252.37 356.45 254.27 350.46C256.27 344.23 260.12 337.18 260.27 330.57C260.47 320.06 249.99 315.51 240.9 313.57C236.05 323.36 217.9 358.71 206.55 362.43C206.72 365.43 207.39 368.36 207.12 371.35C207.12 371.46 207.12 371.56 207.12 371.67C207.435 372.299 207.647 372.974 207.75 373.67C207.825 374.251 207.825 374.839 207.75 375.42L246.52 375.39Z" fill="black"/>
</g>
<path d="M217.88 316.47C217.88 316.47 202.75 358.15 207.55 376C212.35 393.85 237.4 388.35 243.55 377.42C249.7 366.49 261.62 326.84 261.62 326.84L249.27 303.09L221.92 309.26L219.3 313L217.88 316.47Z" stroke="#263238" stroke-linecap="round" stroke-linejoin="round"/>
<path d="M359.73 162.89C359.73 162.89 365.53 157.62 361.2 152.08C361.2 152.08 366.99 147.96 362.81 140.83C362.81 140.83 369.17 132.76 361.2 127.38C361.2 127.38 365.27 118.98 355.93 119.14C355.93 119.14 357.51 110.28 348.17 113.6C348.17 113.6 348.8 104.73 340.89 108.69C340.89 108.69 337.4 100.78 333.29 109.01C333.29 109.01 329.29 98.5599 322.36 102.2C322.36 102.2 308.9 96.0299 307 103.94C307 103.94 298.29 101.73 296 107.74C296 107.74 286.26 106.48 285.79 114.87C285.79 114.87 276.6 118.03 279.45 124.87C279.45 124.87 275.35 130.26 278.9 135.64C278.9 135.64 275.49 139.28 279.45 145.93C279.45 145.93 277.71 152.74 282.45 157.65L340.24 167.15L342.93 180.29L354.14 175.86L359.73 162.89Z" fill="#263238" stroke="#263238" stroke-linecap="round" stroke-linejoin="round"/>
<path d="M323.28 107.35C321.17 104.62 317.28 102.24 310.49 105.21" stroke="#7F7F7F" stroke-width="0.75" stroke-linecap="round" stroke-linejoin="round"/>
<path d="M325.53 112C325.322 111.176 325.031 110.375 324.66 109.61" stroke="#7F7F7F" stroke-width="0.75" stroke-linecap="round" stroke-linejoin="round"/>
<path d="M315.55 111.38C315.55 111.38 305.26 117.72 301.46 108.69" stroke="#7F7F7F" stroke-width="0.75" stroke-linecap="round" stroke-linejoin="round"/>
<path d="M332.06 119.21C332.06 119.21 320.56 122.93 319 113.26" stroke="#7F7F7F" stroke-width="0.75" stroke-linecap="round" stroke-linejoin="round"/>
<path d="M322.86 127.24C320.86 124.35 316.92 121.57 309.77 124.69" stroke="#7F7F7F" stroke-width="0.75" stroke-linecap="round" stroke-linejoin="round"/>
<path d="M324.81 131.5C324.604 130.68 324.316 129.883 323.95 129.12" stroke="#7F7F7F" stroke-width="0.75" stroke-linecap="round" stroke-linejoin="round"/>
<path d="M300.85 131.07C300.252 130.334 299.764 129.516 299.4 128.64" stroke="#7F7F7F" stroke-width="0.75" stroke-linecap="round" stroke-linejoin="round"/>
<path d="M313.5 131.33C313.5 131.33 306.7 135.51 302.12 132.24" stroke="#7F7F7F" stroke-width="0.75" stroke-linecap="round" stroke-linejoin="round"/>
<path d="M359.37 145.6C359.37 145.6 362.26 136.69 352.23 135.48" stroke="#7F7F7F" stroke-width="0.75" stroke-linecap="round" stroke-linejoin="round"/>
<path d="M341.34 141.78C341.34 141.78 337.61 148.43 345.42 151" stroke="#7F7F7F" stroke-width="0.75" stroke-linecap="round" stroke-linejoin="round"/>
<path d="M353.16 141.4C353.16 141.4 344.1 141.58 345.07 134.3" stroke="#7F7F7F" stroke-width="0.75" stroke-linecap="round" stroke-linejoin="round"/>
<path d="M352.23 155.23C352.23 155.23 345.78 148.86 351.67 144.48" stroke="#7F7F7F" stroke-width="0.75" stroke-linecap="round" stroke-linejoin="round"/>
<path d="M303.26 125.78C303.26 125.78 306.15 116.87 296.12 115.66" stroke="#7F7F7F" stroke-width="0.75" stroke-linecap="round" stroke-linejoin="round"/>
<path d="M285.23 122C285.23 122 281.5 128.65 289.31 131.22" stroke="#7F7F7F" stroke-width="0.75" stroke-linecap="round" stroke-linejoin="round"/>
<path d="M297.05 121.58C297.05 121.58 287.99 121.76 288.96 114.48" stroke="#7F7F7F" stroke-width="0.75" stroke-linecap="round" stroke-linejoin="round"/>
<path d="M296.12 135.41C296.12 135.41 289.67 129.05 295.56 124.67" stroke="#7F7F7F" stroke-width="0.75" stroke-linecap="round" stroke-linejoin="round"/>
<path d="M352.2 126.62C352.2 126.62 355.1 117.71 345.06 116.49" stroke="#7F7F7F" stroke-width="0.75" stroke-linecap="round" stroke-linejoin="round"/>
<path d="M334.17 122.8C334.17 122.8 330.44 129.45 338.25 132.02" stroke="#7F7F7F" stroke-width="0.75" stroke-linecap="round" stroke-linejoin="round"/>
<path d="M346 122.41C346 122.41 336.94 122.6 337.91 115.32" stroke="#7F7F7F" stroke-width="0.75" stroke-linecap="round" stroke-linejoin="round"/>
<path d="M415.78 256.21C415.78 256.21 399.78 340.21 397.38 441.46H253.46C253.46 441.46 269.78 355.53 251.46 243.46C251.49 243.43 325.69 190.62 415.78 256.21Z" fill="black"/>
<mask id="mask2_132_123" style="mask-type:luminance" maskUnits="userSpaceOnUse" x="251" y="223" width="165" height="219">
<path d="M415.78 256.21C415.78 256.21 399.78 340.21 397.38 441.46H253.46C253.46 441.46 269.78 355.53 251.46 243.46C251.49 243.43 325.69 190.62 415.78 256.21Z" fill="white"/>
</mask>
<g mask="url(#mask2_132_123)">
<path opacity="0.2" d="M410.09 264.33C410.09 264.33 391.73 293.94 388.56 322.05C386.718 337.58 385.664 353.193 385.4 368.83L303.7 347.34C303.7 347.34 353.09 389.07 379.38 406.52C390.9 414.16 397.44 439.07 397.44 439.07L399.15 403.07L397 326.67L415.82 273.83L410.09 264.33Z" fill="black"/>
<path opacity="0.2" d="M338.45 258.22L321.22 245.02L303.03 257.57L297.52 239.32L314.9 232.51L337.58 235.2L345.18 245.37L338.45 258.22Z" fill="black"/>
</g>
<path d="M415.78 256.21C415.78 256.21 399.78 340.21 397.38 441.46H253.46C253.46 441.46 269.78 355.53 251.46 243.46C251.49 243.43 325.69 190.62 415.78 256.21Z" stroke="#263238" stroke-linecap="round" stroke-linejoin="round"/>
<path d="M437.16 326.4C437.16 326.4 439.38 385.2 418.62 405.57C418.62 405.57 393.69 411.27 320.78 355.85C320.78 355.85 313.54 356.48 309.78 352.05C309.78 352.05 298.03 356.17 291.87 349.52C291.87 349.52 283.97 349.83 282.2 342.52C282.2 342.52 277.2 343.15 275.44 340.94C275.44 340.94 269.44 341.25 268.59 338.09C267.74 334.93 274.52 332.37 274.52 332.37C274.52 332.37 274.65 325.1 277.66 322.89C279.435 321.572 281.383 320.505 283.45 319.72C283.45 319.72 263.53 307.72 265.96 301.04C268.39 294.36 271.73 306.1 290.68 314.34C290.68 314.34 300.2 314.65 302.03 318.14L325.08 337.45C325.08 337.45 331.82 339.25 334.03 339.99C348.36 344.77 368.45 353.29 392.31 354.87L396.94 316.87C396.94 316.87 425.87 309.93 437.16 326.4Z" fill="#858585"/>
<mask id="mask3_132_123" style="mask-type:luminance" maskUnits="userSpaceOnUse" x="265" y="299" width="173" height="107">
<path d="M437.16 326.4C437.16 326.4 439.38 385.2 418.62 405.57C418.62 405.57 393.69 411.27 320.78 355.85C320.78 355.85 313.54 356.48 309.78 352.05C309.78 352.05 298.03 356.17 291.87 349.52C291.87 349.52 283.97 349.83 282.2 342.52C282.2 342.52 277.2 343.15 275.44 340.94C275.44 340.94 269.44 341.25 268.59 338.09C267.74 334.93 274.52 332.37 274.52 332.37C274.52 332.37 274.65 325.1 277.66 322.89C279.435 321.572 281.383 320.505 283.45 319.72C283.45 319.72 263.53 307.72 265.96 301.04C268.39 294.36 271.73 306.1 290.68 314.34C290.68 314.34 300.2 314.65 302.03 318.14L325.08 337.45C325.08 337.45 331.82 339.25 334.03 339.99C348.36 344.77 368.45 353.29 392.31 354.87L396.94 316.87C396.94 316.87 425.87 309.93 437.16 326.4Z" fill="white"/>
</mask>
<g mask="url(#mask3_132_123)">
<path opacity="0.2" d="M406.68 316.47L399.9 355.18L392.28 354.9L392.94 349.52L396.38 321.21L399.15 308.83L405.03 310.09L406.68 316.47Z" fill="black"/>
<path opacity="0.2" d="M433.9 370.08C433.9 370.08 426.72 393.53 418.01 402.08C418.01 402.08 425.93 389.73 391.1 380.87C356.27 372.01 322.86 351 322.86 351C322.86 351 310.86 341.43 305.44 343.19C300.02 344.95 302.24 347.68 303.7 347.32C305.16 346.96 307.18 347.52 307.3 349.5C307.42 351.48 307.49 352.86 305.13 353.07C306.64 352.609 308.185 352.275 309.75 352.07C310.75 352.41 314.62 354.79 315.75 355.2C317.38 355.82 318.97 355.1 320.82 355.87C324.16 357.27 327.97 361.99 331.65 363.87C333.76 364.97 355.81 380.52 358.04 381.68C382.62 394.45 390.67 397.86 390.67 397.86L403.67 403.59L413.88 405.59H418.62L425.34 396.42L431.61 380.15L432.8 373.43L433.9 370.08Z" fill="black"/>
<path opacity="0.2" d="M300.8 353.28C300.193 352.861 299.699 352.298 299.362 351.642C299.026 350.986 298.857 350.257 298.87 349.52C299.11 347.22 294.25 350.58 291.57 347C291.57 347 285.89 346.63 282.17 339.62C282.17 339.62 276 340.7 275.09 337.96C275.09 337.96 274.64 329.53 273.93 329.88C273.22 330.23 271.44 331.43 271.44 331.43L273.22 342.55L283.42 350.9L295.29 355.65H300.8V353.28Z" fill="black"/>
<path opacity="0.2" d="M281.06 319.75C281.06 319.75 283.6 320.01 289.89 317.54C289.89 317.54 280.64 315.2 274.64 310.4C268.64 305.6 267.25 300.32 265.72 302.57C264.19 304.82 270.49 311.83 270.49 311.83L281.06 319.75Z" fill="black"/>
</g>
<path d="M437.16 326.4C437.16 326.4 439.38 385.2 418.62 405.57C418.62 405.57 393.69 411.27 320.78 355.85C320.78 355.85 313.54 356.48 309.78 352.05C309.78 352.05 298.03 356.17 291.87 349.52C291.87 349.52 283.97 349.83 282.2 342.52C282.2 342.52 277.2 343.15 275.44 340.94C275.44 340.94 269.44 341.25 268.59 338.09C267.74 334.93 274.52 332.37 274.52 332.37C274.52 332.37 274.65 325.1 277.66 322.89C279.435 321.572 281.383 320.505 283.45 319.72C283.45 319.72 263.53 307.72 265.96 301.04C268.39 294.36 271.73 306.1 290.68 314.34C290.68 314.34 300.2 314.65 302.03 318.14L325.08 337.45C325.08 337.45 331.82 339.25 334.03 339.99C348.36 344.77 368.45 353.29 392.31 354.87L396.94 316.87C396.94 316.87 425.87 309.93 437.16 326.4Z" stroke="#263238" stroke-linecap="round" stroke-linejoin="round"/>
<path d="M394.56 355.18C402.65 355.58 406 353.54 412.77 362.66" stroke="#263238" stroke-linecap="round" stroke-linejoin="round"/>
<path d="M295.29 324.66C295.29 324.66 283.64 329.66 283.02 332.66C282.54 335.95 282.256 339.266 282.17 342.59" stroke="#263238" stroke-linecap="round" stroke-linejoin="round"/>
<path d="M301.45 331.31C300.716 332.882 299.581 334.234 298.16 335.23C294.89 337.64 291.23 337.96 291.16 340.93C291.09 343.9 291.8 349.52 291.8 349.52" stroke="#263238" stroke-linecap="round" stroke-linejoin="round"/>
<path d="M274.49 332.4L275.41 340.97" stroke="#263238" stroke-linecap="round" stroke-linejoin="round"/>
<path d="M283.42 319.75L293.05 316.47" stroke="#263238" stroke-linecap="round" stroke-linejoin="round"/>
<path d="M306.6 342.16C304.878 343.828 302.925 345.239 300.8 346.35" stroke="#263238" stroke-linecap="round" stroke-linejoin="round"/>
<path d="M251.49 243.43C251.49 243.43 217.7 256.84 216 316.2C215.993 316.484 216.065 316.765 216.209 317.011C216.352 317.257 216.56 317.458 216.811 317.593C217.061 317.727 217.344 317.79 217.628 317.774C217.913 317.757 218.186 317.662 218.42 317.5C223.63 313.78 237.11 308.76 259.73 330.8C259.966 331.029 260.264 331.183 260.587 331.245C260.91 331.306 261.244 331.271 261.547 331.144C261.851 331.018 262.11 330.805 262.294 330.532C262.477 330.259 262.577 329.938 262.58 329.61V329.53C262.58 323.2 262.5 310.13 261.18 294.83C259.79 278.42 257 259.43 251.49 243.43Z" fill="black" stroke="#263238" stroke-linecap="round" stroke-linejoin="round"/>
<path d="M224.82 306.3C232.72 304.84 246.96 305.43 261.26 322.05" stroke="#263238" stroke-linecap="round" stroke-linejoin="round"/>
<path d="M218.5 308.27C219.674 307.704 220.9 307.252 222.16 306.92" stroke="#263238" stroke-linecap="round" stroke-linejoin="round"/>
<path d="M358.46 229.9C358.46 229.9 347.3 212.56 350.39 182.63L304.74 185.63C304.74 185.63 304.34 225.21 289.74 227.31L301.66 242.56L312.17 243.34L330.34 243.42L356.82 234.87L358.46 229.9Z" fill="#858585"/>
<mask id="mask4_132_123" style="mask-type:luminance" maskUnits="userSpaceOnUse" x="289" y="182" width="70" height="62">
<path d="M358.46 229.9C358.46 229.9 347.3 212.56 350.39 182.63L304.74 185.63C304.74 185.63 304.34 225.21 289.74 227.31L301.66 242.56L312.17 243.34L330.34 243.42L356.82 234.87L358.46 229.9Z" fill="white"/>
</mask>
<g mask="url(#mask4_132_123)">
<path d="M346.21 188.43C342.677 189.718 339.054 190.745 335.37 191.5C335.142 192.249 334.716 192.923 334.137 193.451C333.558 193.979 332.848 194.341 332.08 194.5C327.01 195.62 321.82 195.94 316.72 196.89C311.62 197.84 306.72 198.95 301.66 199.16C296.22 199.38 290.9 198.16 285.66 196.85L285.32 196.77C287.65 199.38 289.9 202.01 291.13 205.37C291.97 207.7 292.06 210.37 293.13 212.55C293.65 213.67 294.61 214.47 295.19 215.55C295.731 215.729 296.226 216.022 296.645 216.408C297.063 216.794 297.394 217.265 297.615 217.79C297.837 218.314 297.944 218.88 297.929 219.449C297.914 220.018 297.778 220.577 297.53 221.09L297.23 221.8C296.965 222.541 296.547 223.218 296.002 223.787C295.458 224.355 294.799 224.803 294.07 225.1C297.07 228.75 300.02 231.1 302.61 231.1C311.21 231.1 327.8 225.97 338.47 215.1C348.64 204.77 348.63 186.26 348.66 184.78C347.66 185.12 347.18 188.08 346.21 188.43Z" fill="#263238" stroke="#263238" stroke-linecap="round" stroke-linejoin="round"/>
</g>
<path d="M358.46 229.9C358.46 229.9 347.3 212.56 350.39 182.63L304.74 185.63C304.74 185.63 304.34 225.21 289.74 227.31L301.66 242.56L312.17 243.34L330.34 243.42L356.82 234.87L358.46 229.9Z" stroke="#263238" stroke-linecap="round" stroke-linejoin="round"/>
<path d="M349.85 167C349.85 167 352.52 156.55 358.46 158C364.4 159.45 360.6 193.39 348.01 184.84C348.01 184.84 348.01 201.79 337.32 212.63C326.63 223.47 314.8 226.71 306.21 226.71C297.62 226.71 284.64 200.71 282.48 187.45C280.32 174.19 281.04 143.52 284.12 139.72C287.2 135.92 325.19 140.43 333.63 136.87C342.07 133.31 332.57 152.07 337.09 156.58C341.61 161.09 344.93 157.58 343.98 175.58L347.77 172.02L349.85 167Z" fill="#858585" stroke="#263238" stroke-linecap="round" stroke-linejoin="round"/>
<path d="M314.9 175.59C314.9 177.28 315.97 178.65 317.29 178.65C318.61 178.65 319.68 177.28 319.68 175.59C319.68 173.9 318.61 172.53 317.29 172.53C315.97 172.53 314.9 173.9 314.9 175.59Z" fill="#263238"/>
<path d="M290.06 175.59C290.06 177.28 291.13 178.65 292.45 178.65C293.77 178.65 294.84 177.28 294.84 175.59C294.84 173.9 293.77 172.53 292.45 172.53C291.13 172.53 290.06 173.9 290.06 175.59Z" fill="#263238"/>
<path d="M330.28 164.58C330.28 164.58 323.15 157.14 312.28 164.58" stroke="#263238" stroke-width="4" stroke-linecap="round" stroke-linejoin="round"/>
<path d="M296.87 165.38C296.87 165.38 288 156.05 284.2 162.93" stroke="#263238" stroke-width="4" stroke-linecap="round" stroke-linejoin="round"/>
<path d="M325.36 200.58C325.36 200.58 304.06 207.69 294.97 201.58C295 201.63 306.44 221.5 325.36 200.58Z" fill="white" stroke="#263238" stroke-linecap="round" stroke-linejoin="round"/>
<path d="M313.49 185.64C313.49 185.64 316.94 188.78 314.76 191.48C314.267 192.047 313.618 192.454 312.893 192.652C312.169 192.849 311.402 192.828 310.69 192.59C310.053 192.319 309.352 192.236 308.67 192.352C307.987 192.467 307.352 192.775 306.84 193.24C304.94 195.3 300.04 194.83 298.45 192.24C297.719 191.976 296.955 191.818 296.18 191.77C295.667 191.775 295.169 191.601 294.771 191.278C294.373 190.955 294.1 190.503 294 190C293.79 188.68 294.22 187 296.83 185.68" stroke="#263238" stroke-linecap="round" stroke-linejoin="round"/>
<path d="M300.35 170.47C301.44 174.319 301.826 178.333 301.49 182.32" stroke="#263238" stroke-linecap="round" stroke-linejoin="round"/>
<path d="M320.94 200.24C320.94 200.24 311.75 198.07 306.24 200.7C305.928 200.862 305.579 200.939 305.228 200.923C304.877 200.907 304.536 200.799 304.24 200.61C303.09 199.85 300.74 198.89 296.89 199.74" stroke="#263238" stroke-width="0.75" stroke-linecap="round" stroke-linejoin="round"/>
<path d="M358.15 227.64C353.95 231.37 339.31 239.34 319.65 243.43L328.54 244.86L339.81 260.06C339.81 260.06 363.05 247.46 368.3 230.13L363.09 227.23C362.326 226.777 361.44 226.574 360.555 226.647C359.669 226.72 358.829 227.067 358.15 227.64Z" fill="black" stroke="#263238" stroke-linecap="round" stroke-linejoin="round"/>
<path d="M292.22 226.64C295.73 231.11 300.84 239.52 320.16 243.43L311.47 244.86L301.38 260.06C301.38 260.06 284.38 248.66 282.82 228.23L287.18 225.6C288.003 225.132 288.969 224.979 289.896 225.171C290.824 225.362 291.65 225.884 292.22 226.64Z" fill="black" stroke="#263238" stroke-linecap="round" stroke-linejoin="round"/>
<path d="M322.36 177.25C320.764 177.952 319.039 178.314 317.295 178.314C315.551 178.314 313.826 177.952 312.23 177.25" stroke="#263238" stroke-width="0.75" stroke-linecap="round" stroke-linejoin="round"/>
<path d="M297.52 177.25C295.924 177.952 294.199 178.314 292.455 178.314C290.711 178.314 288.987 177.952 287.39 177.25" stroke="#263238" stroke-width="0.75" stroke-linecap="round" stroke-linejoin="round"/>
<path d="M415.78 256.21C415.78 256.21 441.45 265.53 438.71 328.78C438.694 329.005 438.613 329.22 438.475 329.399C438.338 329.578 438.151 329.712 437.938 329.786C437.725 329.859 437.495 329.868 437.277 329.812C437.059 329.756 436.862 329.637 436.71 329.47C432.87 324.64 422.27 316.04 397.66 321.47C397.438 321.517 397.208 321.511 396.988 321.452C396.769 321.393 396.567 321.283 396.398 321.131C396.229 320.978 396.099 320.789 396.018 320.576C395.936 320.364 395.906 320.136 395.93 319.91C396.91 310.55 402 270.52 415.78 256.21Z" fill="black" stroke="#263238" stroke-linecap="round" stroke-linejoin="round"/>
<path d="M399.9 312.9L398.39 313.26" stroke="#263238" stroke-linecap="round" stroke-linejoin="round"/>
<path d="M411.8 311.56C408.362 311.544 404.93 311.879 401.56 312.56" stroke="#263238" stroke-linecap="round" stroke-linejoin="round"/>
<path d="M431.61 317C426.246 313.743 420.149 311.886 413.88 311.6" stroke="#263238" stroke-linecap="round" stroke-linejoin="round"/>
<path d="M436.61 320.87C435.652 319.955 434.633 319.106 433.56 318.33" stroke="#263238" stroke-linecap="round" stroke-linejoin="round"/>
<path d="M274.64 310.4C274.487 310.598 274.287 310.757 274.059 310.861C273.831 310.966 273.581 311.013 273.33 311H250.19C249.529 310.949 248.897 310.711 248.366 310.315C247.834 309.918 247.427 309.379 247.19 308.76L229 257.91C228.892 257.656 228.844 257.38 228.86 257.104C228.875 256.829 228.954 256.56 229.09 256.32L230.91 254.32C231.063 254.123 231.261 253.967 231.487 253.864C231.714 253.761 231.962 253.715 232.21 253.73H255.35C256.011 253.781 256.644 254.018 257.175 254.415C257.706 254.811 258.114 255.351 258.35 255.97L276.49 306.82C276.598 307.074 276.646 307.35 276.631 307.625C276.615 307.901 276.536 308.169 276.4 308.41L274.64 310.4Z" fill="white" stroke="#263238" stroke-linecap="round" stroke-linejoin="round"/>
<path d="M250.19 311H273.33C273.602 311.019 273.873 310.964 274.116 310.842C274.359 310.719 274.565 310.534 274.712 310.305C274.859 310.077 274.942 309.813 274.952 309.541C274.963 309.269 274.9 308.999 274.77 308.76L256.63 257.91C256.394 257.291 255.986 256.752 255.455 256.355C254.924 255.959 254.291 255.721 253.63 255.67H230.46C230.189 255.653 229.918 255.708 229.676 255.831C229.433 255.953 229.227 256.137 229.08 256.366C228.932 256.594 228.848 256.857 228.836 257.128C228.823 257.4 228.884 257.67 229.01 257.91L247.15 308.76C247.39 309.385 247.803 309.928 248.342 310.325C248.881 310.722 249.522 310.956 250.19 311Z" fill="#263238" stroke="#263238" stroke-linecap="round" stroke-linejoin="round"/>
<path d="M250.44 267.54H255.93C256.201 267.558 256.473 267.504 256.716 267.382C256.959 267.259 257.165 267.074 257.312 266.845C257.459 266.617 257.542 266.352 257.552 266.081C257.562 265.809 257.5 265.539 257.37 265.3L255.37 259.81C255.133 259.191 254.726 258.652 254.195 258.255C253.664 257.858 253.031 257.621 252.37 257.57H246.88C246.609 257.551 246.337 257.606 246.094 257.728C245.851 257.85 245.645 258.036 245.498 258.264C245.351 258.493 245.268 258.757 245.258 259.029C245.248 259.301 245.311 259.571 245.44 259.81L247.39 265.3C247.633 265.924 248.049 266.466 248.59 266.863C249.13 267.26 249.771 267.495 250.44 267.54Z" fill="#858585" stroke="#263238" stroke-linecap="round" stroke-linejoin="round"/>
<path d="M246.9 260.24C247.036 260.606 247.276 260.924 247.591 261.155C247.905 261.386 248.281 261.52 248.67 261.54C248.827 261.549 248.984 261.516 249.124 261.445C249.264 261.374 249.383 261.267 249.469 261.134C249.554 261.002 249.603 260.85 249.61 260.693C249.617 260.536 249.583 260.379 249.51 260.24C249.369 259.877 249.128 259.561 248.815 259.329C248.502 259.097 248.129 258.959 247.74 258.93C247.582 258.92 247.424 258.952 247.282 259.024C247.14 259.096 247.02 259.204 246.935 259.338C246.849 259.471 246.801 259.626 246.795 259.784C246.789 259.943 246.825 260.1 246.9 260.24Z" fill="black"/>
<path d="M252.55 262.55C252.691 262.913 252.932 263.229 253.245 263.461C253.559 263.693 253.931 263.831 254.32 263.86C254.478 263.87 254.637 263.838 254.778 263.766C254.92 263.694 255.04 263.586 255.126 263.452C255.211 263.319 255.26 263.164 255.266 263.006C255.272 262.847 255.235 262.69 255.16 262.55C255.024 262.184 254.784 261.866 254.469 261.635C254.155 261.404 253.78 261.27 253.39 261.25C253.233 261.241 253.076 261.274 252.936 261.345C252.796 261.416 252.677 261.523 252.592 261.656C252.506 261.788 252.457 261.94 252.45 262.097C252.443 262.254 252.477 262.41 252.55 262.55Z" fill="black"/>
<path d="M248.55 264.87C248.686 265.236 248.926 265.554 249.241 265.785C249.555 266.016 249.93 266.15 250.32 266.17C250.477 266.179 250.634 266.146 250.774 266.075C250.914 266.004 251.033 265.896 251.118 265.764C251.204 265.632 251.253 265.48 251.26 265.323C251.267 265.166 251.233 265.009 251.16 264.87C251.019 264.506 250.778 264.19 250.465 263.959C250.152 263.727 249.779 263.588 249.39 263.56C249.232 263.55 249.073 263.582 248.932 263.654C248.79 263.726 248.67 263.834 248.585 263.968C248.499 264.101 248.451 264.255 248.444 264.414C248.438 264.573 248.475 264.73 248.55 264.87Z" fill="black"/>
<path d="M229.76 316.47C229.76 316.47 206.85 359.1 207.55 376C208.25 392.9 218.87 398.56 218.87 398.56C218.87 398.56 247.51 397.14 247.98 363.17L251.85 330.17C251.85 330.17 261.85 326.77 265.85 319.8C265.85 319.8 275.85 316.4 278.99 310.7C282.13 305 283.99 297.63 280.84 296.45C277.69 295.27 275.49 305.65 272.75 307.61C270.92 308.92 267.99 310.61 266.26 311.61C266.074 311.704 265.871 311.759 265.663 311.771C265.455 311.783 265.247 311.752 265.051 311.68C264.856 311.608 264.678 311.496 264.528 311.351C264.378 311.207 264.259 311.033 264.18 310.84C264.045 310.557 264.013 310.236 264.087 309.932C264.162 309.628 264.34 309.359 264.59 309.17C266.954 307.478 269.065 305.457 270.86 303.17C273.86 299.17 282.35 287.49 278.13 284.88C273.91 282.27 267 295 264.26 297.11C262.59 298.43 260.26 299.94 258.79 300.9C258.321 301.177 257.774 301.293 257.233 301.232C256.692 301.17 256.185 300.935 255.79 300.56L255.62 300.41C255.199 300.049 254.909 299.56 254.793 299.018C254.678 298.476 254.743 297.911 254.98 297.41C255.753 295.738 256.635 294.117 257.62 292.56C259.44 290.15 261.87 287.83 265.62 283.5C269.53 279.02 273 275.85 270.36 273.79C265.17 269.79 251.74 284.96 249.97 286.86C248.841 288.247 247.905 289.781 247.19 291.42C247.102 291.594 246.979 291.749 246.829 291.874C246.68 292 246.507 292.094 246.32 292.151C246.133 292.208 245.937 292.227 245.743 292.206C245.548 292.185 245.36 292.125 245.19 292.03C244.949 291.902 244.744 291.716 244.592 291.489C244.44 291.262 244.347 291.002 244.32 290.73C244.16 288.84 243.85 284.45 244.26 282.82C244.85 280.46 246.53 278.82 248.96 274.46C251.1 270.67 253.58 266.67 251.8 265.01C247.99 261.44 240.43 272.37 240.43 272.37L235 282.15C235 282.15 237.26 277.15 234.48 274.78C231.7 272.41 231.86 277.87 229.48 280.72C227.1 283.57 229.38 289.51 228.73 293.78C228.336 296.295 228.115 298.835 228.07 301.38L229.76 316.47Z" fill="#858585"/>
<mask id="mask5_132_123" style="mask-type:luminance" maskUnits="userSpaceOnUse" x="207" y="264" width="76" height="135">
<path d="M229.76 316.47C229.76 316.47 206.85 359.1 207.55 376C208.25 392.9 218.87 398.56 218.87 398.56C218.87 398.56 247.51 397.14 247.98 363.17L251.85 330.17C251.85 330.17 261.85 326.77 265.85 319.8C265.85 319.8 275.85 316.4 278.99 310.7C282.13 305 283.99 297.63 280.84 296.45C277.69 295.27 275.49 305.65 272.75 307.61C270.92 308.92 267.99 310.61 266.26 311.61C266.074 311.704 265.871 311.759 265.663 311.771C265.455 311.783 265.247 311.752 265.051 311.68C264.856 311.608 264.678 311.496 264.528 311.351C264.378 311.207 264.259 311.033 264.18 310.84C264.045 310.557 264.013 310.236 264.087 309.932C264.162 309.628 264.34 309.359 264.59 309.17C266.954 307.478 269.065 305.457 270.86 303.17C273.86 299.17 282.35 287.49 278.13 284.88C273.91 282.27 267 295 264.26 297.11C262.59 298.43 260.26 299.94 258.79 300.9C258.321 301.177 257.774 301.293 257.233 301.232C256.692 301.17 256.185 300.935 255.79 300.56L255.62 300.41C255.199 300.049 254.909 299.56 254.793 299.018C254.678 298.476 254.743 297.911 254.98 297.41C255.753 295.738 256.635 294.117 257.62 292.56C259.44 290.15 261.87 287.83 265.62 283.5C269.53 279.02 273 275.85 270.36 273.79C265.17 269.79 251.74 284.96 249.97 286.86C248.841 288.247 247.905 289.781 247.19 291.42C247.102 291.594 246.979 291.749 246.829 291.874C246.68 292 246.507 292.094 246.32 292.151C246.133 292.208 245.937 292.227 245.743 292.206C245.548 292.185 245.36 292.125 245.19 292.03C244.949 291.902 244.744 291.716 244.592 291.489C244.44 291.262 244.347 291.002 244.32 290.73C244.16 288.84 243.85 284.45 244.26 282.82C244.85 280.46 246.53 278.82 248.96 274.46C251.1 270.67 253.58 266.67 251.8 265.01C247.99 261.44 240.43 272.37 240.43 272.37L235 282.15C235 282.15 237.26 277.15 234.48 274.78C231.7 272.41 231.86 277.87 229.48 280.72C227.1 283.57 229.38 289.51 228.73 293.78C228.336 296.295 228.115 298.835 228.07 301.38L229.76 316.47Z" fill="white"/>
</mask>
<g mask="url(#mask5_132_123)">
<path opacity="0.2" d="M261.26 318.11C258.095 315.723 255.246 312.944 252.78 309.84C249.94 306.13 248.04 301.15 244.48 301.15C240.92 301.15 237.97 296.35 234.1 299.15C230.23 301.95 235.1 314.65 234.1 319.79C233.1 324.93 239.32 410.91 210.23 387.74C210.699 389.48 211.37 391.158 212.23 392.74C212.263 392.799 212.3 392.856 212.34 392.91C212.57 393.2 212.8 393.49 212.97 393.74L213.09 394.04C214.652 396.078 216.721 397.671 219.09 398.66C219.5 398.66 219.94 398.61 220.4 398.61L220.86 398.41L222 398C222.762 397.418 223.667 397.052 224.62 396.94L225.51 396.8C226.76 396.409 228.037 396.108 229.33 395.9C229.67 395.79 230.01 395.66 230.33 395.53C234.586 393.007 238.428 389.844 241.72 386.15C242.462 383.98 243.452 381.903 244.67 379.96C245.67 378.26 246.67 376.74 246.59 374.73C246.501 373.569 246.858 372.417 247.59 371.51C248.02 365.65 248.18 359.95 249.13 354.1C250.18 347.71 251.37 341.41 251.35 334.9C251.349 334.626 251.369 334.352 251.41 334.08C251.321 333.412 251.362 332.733 251.53 332.08C251.909 330.838 252.722 329.774 253.82 329.08C254.72 328.43 255.76 327.99 256.65 327.34C257.106 327.031 257.625 326.826 258.17 326.74C259.79 324.91 263.67 320.1 261.26 318.11Z" fill="black"/>
<path opacity="0.2" d="M269.36 300.46C268.621 299.87 267.95 299.199 267.36 298.46C267.235 298.294 267.073 298.16 266.888 298.067C266.702 297.975 266.497 297.927 266.29 297.927C266.083 297.927 265.878 297.975 265.692 298.067C265.507 298.16 265.345 298.294 265.22 298.46C263.97 300.2 261.82 302.79 259.48 304C259.48 304 261.62 308.75 263.76 307.8C265.29 307.12 268.1 304.06 269.57 302.38C269.687 302.242 269.775 302.082 269.828 301.909C269.881 301.736 269.898 301.555 269.878 301.375C269.858 301.195 269.802 301.021 269.713 300.864C269.624 300.707 269.504 300.569 269.36 300.46Z" fill="black"/>
<path opacity="0.2" d="M255.51 290.81C254.132 290.334 252.887 289.535 251.88 288.48C251.8 288.388 251.699 288.317 251.586 288.273C251.472 288.228 251.349 288.212 251.228 288.226C251.107 288.24 250.991 288.283 250.89 288.352C250.79 288.42 250.707 288.513 250.65 288.62L248.2 293.31C248.2 293.31 249.95 296.05 252.47 296.75C253.453 295.087 254.563 293.502 255.79 292.01C255.871 291.921 255.93 291.812 255.96 291.695C255.99 291.578 255.992 291.455 255.964 291.337C255.937 291.219 255.881 291.11 255.802 291.018C255.723 290.926 255.623 290.855 255.51 290.81Z" fill="black"/>
<path opacity="0.2" d="M243.17 281.67C243.17 281.67 240.27 285.47 237.47 284.4V291.17L243.17 290.82C243.17 290.82 242.11 287.37 243.17 281.67Z" fill="black"/>
<path opacity="0.2" d="M276.19 312.43C276.19 312.43 271.4 314.49 267.84 314.62C267.477 314.623 267.124 314.746 266.838 314.97C266.552 315.194 266.349 315.508 266.26 315.86L265.72 318.11C265.72 318.11 270.25 317.53 276.19 312.43Z" fill="black"/>
<path opacity="0.2" d="M235.5 280.53C235.5 280.53 233.79 284.17 231.77 285.59C229.75 287.01 232.01 288.01 231.77 291.31C231.77 291.31 234.84 283.07 235.5 280.53Z" fill="black"/>
</g>
<path d="M229.76 316.47C229.76 316.47 206.85 359.1 207.55 376C208.25 392.9 218.87 398.56 218.87 398.56C218.87 398.56 247.51 397.14 247.98 363.17L251.85 330.17C251.85 330.17 261.85 326.77 265.85 319.8C265.85 319.8 275.85 316.4 278.99 310.7C282.13 305 283.99 297.63 280.84 296.45C277.69 295.27 275.49 305.65 272.75 307.61C270.92 308.92 267.99 310.61 266.26 311.61C266.074 311.704 265.871 311.759 265.663 311.771C265.455 311.783 265.247 311.752 265.051 311.68C264.856 311.608 264.678 311.496 264.528 311.351C264.378 311.207 264.259 311.033 264.18 310.84C264.045 310.557 264.013 310.236 264.087 309.932C264.162 309.628 264.34 309.359 264.59 309.17C266.954 307.478 269.065 305.457 270.86 303.17C273.86 299.17 282.35 287.49 278.13 284.88C273.91 282.27 267 295 264.26 297.11C262.59 298.43 260.26 299.94 258.79 300.9C258.321 301.177 257.774 301.293 257.233 301.232C256.692 301.17 256.185 300.935 255.79 300.56L255.62 300.41C255.199 300.049 254.909 299.56 254.793 299.018C254.678 298.476 254.743 297.911 254.98 297.41C255.753 295.738 256.635 294.117 257.62 292.56C259.44 290.15 261.87 287.83 265.62 283.5C269.53 279.02 273 275.85 270.36 273.79C265.17 269.79 251.74 284.96 249.97 286.86C248.841 288.247 247.905 289.781 247.19 291.42C247.102 291.594 246.979 291.749 246.829 291.874C246.68 292 246.507 292.094 246.32 292.151C246.133 292.208 245.937 292.227 245.743 292.206C245.548 292.185 245.36 292.125 245.19 292.03C244.949 291.902 244.744 291.716 244.592 291.489C244.44 291.262 244.347 291.002 244.32 290.73C244.16 288.84 243.85 284.45 244.26 282.82C244.85 280.46 246.53 278.82 248.96 274.46C251.1 270.67 253.58 266.67 251.8 265.01C247.99 261.44 240.43 272.37 240.43 272.37L235 282.15C235 282.15 237.26 277.15 234.48 274.78C231.7 272.41 231.86 277.87 229.48 280.72C227.1 283.57 229.38 289.51 228.73 293.78C228.336 296.295 228.115 298.835 228.07 301.38L229.76 316.47Z" stroke="#263238" stroke-linecap="round" stroke-linejoin="round"/>
<path d="M234.68 283.33C234.68 283.33 231.91 292.83 230.28 293.33" stroke="#263238" stroke-linecap="round" stroke-linejoin="round"/>
<path d="M373.52 426.3C374.83 426.47 376.14 426.63 377.52 426.78" stroke="#263238" stroke-linecap="round" stroke-linejoin="round"/>
<path d="M315.71 415.52C328.81 419.12 346 422.67 368.53 425.66" stroke="#263238" stroke-linecap="round" stroke-linejoin="round"/>
<path d="M278.92 399.74C283.58 403.39 292.86 408.74 310.92 414.16" stroke="#263238" stroke-linecap="round" stroke-linejoin="round"/>
<path d="M274.49 395.12C275.04 396.078 275.739 396.942 276.56 397.68" stroke="#263238" stroke-linecap="round" stroke-linejoin="round"/>
<path d="M324.79 248.2L323.09 296.84C321.935 296.848 320.79 296.621 319.725 296.173C318.66 295.725 317.697 295.065 316.895 294.234C316.092 293.402 315.467 292.417 315.057 291.336C314.647 290.256 314.461 289.104 314.51 287.95L315.9 248.2" stroke="#263238" stroke-width="0.75" stroke-linecap="round" stroke-linejoin="round"/>
<path d="M323.16 252.67C323.16 253.263 322.984 253.843 322.655 254.337C322.325 254.83 321.856 255.214 321.308 255.442C320.76 255.669 320.157 255.728 319.575 255.612C318.993 255.497 318.458 255.211 318.039 254.791C317.619 254.372 317.334 253.837 317.218 253.255C317.102 252.673 317.161 252.07 317.389 251.522C317.616 250.974 318 250.505 318.493 250.176C318.987 249.846 319.567 249.67 320.16 249.67C320.956 249.67 321.719 249.986 322.281 250.549C322.844 251.111 323.16 251.874 323.16 252.67Z" fill="black" stroke="#263238" stroke-width="0.75" stroke-linecap="round" stroke-linejoin="round"/>
<path d="M318.86 288.38C320.517 288.38 321.86 287.037 321.86 285.38C321.86 283.723 320.517 282.38 318.86 282.38C317.203 282.38 315.86 283.723 315.86 285.38C315.86 287.037 317.203 288.38 318.86 288.38Z" fill="black" stroke="#263238" stroke-width="0.75" stroke-linecap="round" stroke-linejoin="round"/>
<path d="M324.09 198.92C324.948 200.145 326.091 201.144 327.42 201.83Z" fill="#858585"/>
<path d="M324.09 198.92C324.948 200.145 326.091 201.144 327.42 201.83" stroke="#263238" stroke-width="0.75" stroke-linecap="round" stroke-linejoin="round"/>
<path d="M298.16 205.55C298.16 205.55 299.58 207.29 303.33 207.42" stroke="#263238" stroke-width="0.75" stroke-linecap="round" stroke-linejoin="round"/>
<path d="M325.36 200.58C322.993 202.453 320.428 204.059 317.71 205.37Z" fill="#858585"/>
<path d="M325.36 200.58C322.993 202.453 320.428 204.059 317.71 205.37" stroke="#263238" stroke-width="0.75" stroke-linecap="round" stroke-linejoin="round"/>
<path d="M296.17 205.8C296.17 205.8 299.47 216.8 309.9 215.5C320.33 214.2 324.09 204.11 324.09 204.11" stroke="#263238" stroke-width="0.75" stroke-linecap="round" stroke-linejoin="round"/>
<path d="M422.26 133.07H391C390.642 133.07 390.299 132.927 390.045 132.674C389.792 132.421 389.65 132.078 389.65 131.72C389.649 131.542 389.683 131.366 389.75 131.201C389.817 131.037 389.917 130.888 390.042 130.762C390.168 130.636 390.317 130.537 390.482 130.47C390.646 130.402 390.822 130.368 391 130.37H422.29C422.648 130.37 422.991 130.512 423.245 130.765C423.498 131.018 423.64 131.362 423.64 131.72C423.639 131.899 423.602 132.077 423.532 132.242C423.461 132.407 423.359 132.557 423.231 132.682C423.103 132.807 422.951 132.906 422.784 132.973C422.618 133.039 422.439 133.072 422.26 133.07Z" fill="#263238" stroke="#263238" stroke-width="0.75" stroke-linecap="round" stroke-linejoin="round"/>
<path d="M421.36 139.8H391C390.642 139.8 390.299 139.658 390.045 139.405C389.792 139.152 389.65 138.808 389.65 138.45C389.649 138.272 389.683 138.096 389.75 137.932C389.817 137.768 389.917 137.618 390.042 137.493C390.168 137.367 390.317 137.268 390.482 137.2C390.646 137.133 390.822 137.099 391 137.1H421.39C421.748 137.1 422.091 137.242 422.345 137.496C422.598 137.749 422.74 138.092 422.74 138.45C422.739 138.63 422.702 138.807 422.632 138.972C422.561 139.137 422.459 139.287 422.331 139.412C422.203 139.538 422.051 139.637 421.884 139.703C421.718 139.77 421.539 139.803 421.36 139.8Z" fill="#263238" stroke="#263238" stroke-width="0.75" stroke-linecap="round" stroke-linejoin="round"/>
<path d="M412.36 143.83H390.97C390.225 143.83 389.62 144.434 389.62 145.18C389.62 145.926 390.225 146.53 390.97 146.53H412.36C413.106 146.53 413.71 145.926 413.71 145.18C413.71 144.434 413.106 143.83 412.36 143.83Z" fill="#263238" stroke="#263238" stroke-width="0.75" stroke-linecap="round" stroke-linejoin="round"/>
<path d="M426.15 153C427.325 153 428.452 152.533 429.282 151.702C430.113 150.872 430.58 149.745 430.58 148.57V131.42" stroke="#263238" stroke-width="0.75" stroke-linecap="round" stroke-linejoin="round"/>
<path d="M423.6 152.99H406.55L394.71 164.83V152.99H392.56" stroke="#263238" stroke-width="0.75" stroke-linecap="round" stroke-linejoin="round"/>
<path d="M382.64 131.42V148.56C382.64 149.735 383.107 150.862 383.938 151.692C384.768 152.523 385.895 152.99 387.07 152.99H389.62" stroke="#263238" stroke-width="0.75" stroke-linecap="round" stroke-linejoin="round"/>
<path d="M430.58 128.56C430.58 127.385 430.113 126.258 429.283 125.427C428.452 124.597 427.325 124.13 426.15 124.13H387.07C385.895 124.13 384.768 124.597 383.938 125.427C383.107 126.258 382.64 127.385 382.64 128.56" stroke="#263238" stroke-width="0.75" stroke-linecap="round" stroke-linejoin="round"/>
<path d="M446.86 187.06C446.857 185.886 446.39 184.761 445.56 183.93C444.729 183.1 443.604 182.633 442.43 182.63H377" stroke="#263238" stroke-width="0.75" stroke-linecap="round" stroke-linejoin="round"/>
<path d="M396.5 211.49H442.43C443.605 211.49 444.732 211.023 445.562 210.193C446.393 209.362 446.86 208.235 446.86 207.06V190.06" stroke="#263238" stroke-width="0.75" stroke-linecap="round" stroke-linejoin="round"/>
<path d="M381.69 217.67V223.33L393.54 211.49" stroke="#263238" stroke-width="0.75" stroke-linecap="round" stroke-linejoin="round"/>
<path d="M369.63 207.06C369.63 208.235 370.097 209.362 370.927 210.193C371.758 211.023 372.885 211.49 374.06 211.49H381.69V215.2" stroke="#263238" stroke-width="0.75" stroke-linecap="round" stroke-linejoin="round"/>
<path d="M374.06 182.63C372.885 182.63 371.758 183.097 370.927 183.927C370.097 184.758 369.63 185.885 369.63 187.06V204" stroke="#263238" stroke-width="0.75" stroke-linecap="round" stroke-linejoin="round"/>
<path d="M385.47 202.4L380.08 205.23L381.11 199.23L376.74 194.97L382.77 194.1L385.47 188.63L388.17 194.1L394.19 194.97L389.83 199.23L390.86 205.23L385.47 202.4Z" stroke="#263238" stroke-width="0.75" stroke-linecap="round" stroke-linejoin="round"/>
<path d="M408.24 202.4L402.85 205.23L403.88 199.23L399.52 194.97L405.55 194.1L408.24 188.63L410.94 194.1L416.97 194.97L412.6 199.23L413.63 205.23L408.24 202.4Z" stroke="#263238" stroke-width="0.75" stroke-linecap="round" stroke-linejoin="round"/>
<path d="M431.01 202.4L425.62 205.23L426.65 199.23L422.29 194.97L428.32 194.1L431.01 188.63L433.71 194.1L439.74 194.97L435.38 199.23L436.41 205.23L431.01 202.4Z" stroke="#263238" stroke-width="0.75" stroke-linecap="round" stroke-linejoin="round"/>
</svg>
