<svg width="168" height="24" viewBox="0 0 168 24" fill="none" xmlns="http://www.w3.org/2000/svg">
<circle cx="11.5" cy="11.5" r="11.5" fill="url(#paint0_linear_1_408)"/>
<path d="M29.5855 20V5.6H35.2955C36.2689 5.6 37.0655 5.79667 37.6855 6.19C38.3122 6.57667 38.7755 7.07333 39.0755 7.68C39.3822 8.28667 39.5355 8.91333 39.5355 9.56C39.5355 10.3533 39.3455 11.0267 38.9655 11.58C38.5922 12.1333 38.0822 12.5067 37.4355 12.7V12.2C38.3422 12.4067 39.0289 12.8367 39.4955 13.49C39.9689 14.1433 40.2055 14.8867 40.2055 15.72C40.2055 16.5733 40.0422 17.32 39.7155 17.96C39.3889 18.6 38.9022 19.1 38.2555 19.46C37.6155 19.82 36.8222 20 35.8755 20H29.5855ZM32.0255 17.73H35.5755C35.9955 17.73 36.3722 17.6467 36.7055 17.48C37.0389 17.3067 37.2989 17.0667 37.4855 16.76C37.6789 16.4467 37.7755 16.0767 37.7755 15.65C37.7755 15.2633 37.6922 14.9167 37.5255 14.61C37.3589 14.3033 37.1155 14.06 36.7955 13.88C36.4755 13.6933 36.0922 13.6 35.6455 13.6H32.0255V17.73ZM32.0255 11.35H35.2655C35.6122 11.35 35.9222 11.2833 36.1955 11.15C36.4689 11.0167 36.6855 10.82 36.8455 10.56C37.0055 10.3 37.0855 9.98 37.0855 9.6C37.0855 9.1 36.9255 8.68333 36.6055 8.35C36.2855 8.01667 35.8389 7.85 35.2655 7.85H32.0255V11.35ZM46.9727 20.3C45.8927 20.3 44.9494 20.0567 44.1427 19.57C43.3361 19.0833 42.7094 18.4133 42.2627 17.56C41.8227 16.7 41.6027 15.7133 41.6027 14.6C41.6027 13.4667 41.8294 12.4733 42.2827 11.62C42.7361 10.7667 43.3661 10.1 44.1727 9.62C44.9794 9.14 45.9127 8.9 46.9727 8.9C48.0594 8.9 49.0061 9.14333 49.8127 9.63C50.6194 10.1167 51.2461 10.79 51.6927 11.65C52.1394 12.5033 52.3627 13.4867 52.3627 14.6C52.3627 15.72 52.1361 16.71 51.6827 17.57C51.2361 18.4233 50.6094 19.0933 49.8027 19.58C48.9961 20.06 48.0527 20.3 46.9727 20.3ZM46.9727 18.04C47.9327 18.04 48.6461 17.72 49.1127 17.08C49.5794 16.44 49.8127 15.6133 49.8127 14.6C49.8127 13.5533 49.5761 12.72 49.1027 12.1C48.6294 11.4733 47.9194 11.16 46.9727 11.16C46.3261 11.16 45.7927 11.3067 45.3727 11.6C44.9594 11.8867 44.6527 12.29 44.4527 12.81C44.2527 13.3233 44.1527 13.92 44.1527 14.6C44.1527 15.6467 44.3894 16.4833 44.8627 17.11C45.3427 17.73 46.0461 18.04 46.9727 18.04ZM54.566 20V9.2H56.696V11.83L56.436 11.49C56.5693 11.13 56.746 10.8033 56.966 10.51C57.1927 10.21 57.4627 9.96333 57.776 9.77C58.0427 9.59 58.336 9.45 58.656 9.35C58.9827 9.24333 59.316 9.18 59.656 9.16C59.996 9.13333 60.326 9.14667 60.646 9.2V11.45C60.326 11.3567 59.956 11.3267 59.536 11.36C59.1227 11.3933 58.7493 11.51 58.416 11.71C58.0827 11.89 57.8093 12.12 57.596 12.4C57.3893 12.68 57.236 13 57.136 13.36C57.036 13.7133 56.986 14.0967 56.986 14.51V20H54.566ZM67.269 20.3C66.1757 20.3 65.2157 20.0633 64.389 19.59C63.5623 19.1167 62.9157 18.46 62.449 17.62C61.989 16.78 61.759 15.8133 61.759 14.72C61.759 13.54 61.9857 12.5167 62.439 11.65C62.8923 10.7767 63.5223 10.1 64.329 9.62C65.1357 9.14 66.069 8.9 67.129 8.9C68.249 8.9 69.199 9.16333 69.979 9.69C70.7657 10.21 71.349 10.9467 71.729 11.9C72.109 12.8533 72.2523 13.9767 72.159 15.27H69.769V14.39C69.7623 13.2167 69.5557 12.36 69.149 11.82C68.7423 11.28 68.1023 11.01 67.229 11.01C66.2423 11.01 65.509 11.3167 65.029 11.93C64.549 12.5367 64.309 13.4267 64.309 14.6C64.309 15.6933 64.549 16.54 65.029 17.14C65.509 17.74 66.209 18.04 67.129 18.04C67.7223 18.04 68.2323 17.91 68.659 17.65C69.0923 17.3833 69.4257 17 69.659 16.5L72.039 17.22C71.6257 18.1933 70.9857 18.95 70.119 19.49C69.259 20.03 68.309 20.3 67.269 20.3ZM63.549 15.27V13.45H70.979V15.27H63.549ZM78.7202 20.3C77.7269 20.3 76.8602 20.05 76.1202 19.55C75.3802 19.05 74.8069 18.37 74.4002 17.51C73.9936 16.65 73.7902 15.68 73.7902 14.6C73.7902 13.5067 73.9936 12.5333 74.4002 11.68C74.8136 10.82 75.3969 10.1433 76.1502 9.65C76.9036 9.15 77.7902 8.9 78.8102 8.9C79.8369 8.9 80.6969 9.15 81.3902 9.65C82.0902 10.1433 82.6202 10.82 82.9802 11.68C83.3402 12.54 83.5202 13.5133 83.5202 14.6C83.5202 15.6733 83.3402 16.6433 82.9802 17.51C82.6202 18.37 82.0836 19.05 81.3702 19.55C80.6569 20.05 79.7736 20.3 78.7202 20.3ZM79.0902 18.14C79.7369 18.14 80.2569 17.9933 80.6502 17.7C81.0502 17.4 81.3402 16.9833 81.5202 16.45C81.7069 15.9167 81.8002 15.3 81.8002 14.6C81.8002 13.8933 81.7069 13.2767 81.5202 12.75C81.3402 12.2167 81.0569 11.8033 80.6702 11.51C80.2836 11.21 79.7836 11.06 79.1702 11.06C78.5236 11.06 77.9902 11.22 77.5702 11.54C77.1502 11.8533 76.8402 12.28 76.6402 12.82C76.4402 13.3533 76.3402 13.9467 76.3402 14.6C76.3402 15.26 76.4369 15.86 76.6302 16.4C76.8302 16.9333 77.1336 17.3567 77.5402 17.67C77.9469 17.9833 78.4636 18.14 79.0902 18.14ZM81.8002 20V12.42H81.5002V5.6H83.9302V20H81.8002ZM91.504 20.3C90.424 20.3 89.4807 20.0567 88.674 19.57C87.8673 19.0833 87.2407 18.4133 86.794 17.56C86.354 16.7 86.134 15.7133 86.134 14.6C86.134 13.4667 86.3607 12.4733 86.814 11.62C87.2673 10.7667 87.8973 10.1 88.704 9.62C89.5107 9.14 90.444 8.9 91.504 8.9C92.5907 8.9 93.5373 9.14333 94.344 9.63C95.1507 10.1167 95.7773 10.79 96.224 11.65C96.6707 12.5033 96.894 13.4867 96.894 14.6C96.894 15.72 96.6673 16.71 96.214 17.57C95.7673 18.4233 95.1407 19.0933 94.334 19.58C93.5273 20.06 92.584 20.3 91.504 20.3ZM91.504 18.04C92.464 18.04 93.1773 17.72 93.644 17.08C94.1107 16.44 94.344 15.6133 94.344 14.6C94.344 13.5533 94.1073 12.72 93.634 12.1C93.1607 11.4733 92.4507 11.16 91.504 11.16C90.8573 11.16 90.324 11.3067 89.904 11.6C89.4907 11.8867 89.184 12.29 88.984 12.81C88.784 13.3233 88.684 13.92 88.684 14.6C88.684 15.6467 88.9207 16.4833 89.394 17.11C89.874 17.73 90.5773 18.04 91.504 18.04ZM112.067 20V13.44C112.067 12.7 111.884 12.1233 111.517 11.71C111.151 11.29 110.654 11.08 110.027 11.08C109.641 11.08 109.294 11.17 108.987 11.35C108.681 11.5233 108.437 11.7833 108.257 12.13C108.077 12.47 107.987 12.8767 107.987 13.35L106.917 12.72C106.911 11.9733 107.077 11.3167 107.417 10.75C107.764 10.1767 108.231 9.73 108.817 9.41C109.404 9.09 110.057 8.93 110.777 8.93C111.971 8.93 112.884 9.29 113.517 10.01C114.157 10.7233 114.477 11.6633 114.477 12.83V20H112.067ZM99.0773 20V9.2H101.207V12.55H101.507V20H99.0773ZM105.587 20V13.47C105.587 12.7167 105.404 12.13 105.037 11.71C104.671 11.29 104.171 11.08 103.537 11.08C102.924 11.08 102.431 11.29 102.057 11.71C101.691 12.13 101.507 12.6767 101.507 13.35L100.427 12.63C100.427 11.93 100.601 11.3 100.947 10.74C101.294 10.18 101.761 9.74 102.347 9.42C102.941 9.09333 103.604 8.93 104.337 8.93C105.144 8.93 105.817 9.10333 106.357 9.45C106.904 9.79 107.311 10.2567 107.577 10.85C107.851 11.4367 107.987 12.1 107.987 12.84V20H105.587ZM117.286 20V5.6H119.696V20H117.286ZM127.021 20.3C126.028 20.3 125.161 20.05 124.421 19.55C123.681 19.05 123.108 18.37 122.701 17.51C122.294 16.65 122.091 15.68 122.091 14.6C122.091 13.5067 122.294 12.5333 122.701 11.68C123.114 10.82 123.698 10.1433 124.451 9.65C125.204 9.15 126.091 8.9 127.111 8.9C128.138 8.9 128.998 9.15 129.691 9.65C130.391 10.1433 130.921 10.82 131.281 11.68C131.641 12.54 131.821 13.5133 131.821 14.6C131.821 15.6733 131.641 16.6433 131.281 17.51C130.921 18.37 130.384 19.05 129.671 19.55C128.958 20.05 128.074 20.3 127.021 20.3ZM127.391 18.14C128.038 18.14 128.558 17.9933 128.951 17.7C129.351 17.4 129.641 16.9833 129.821 16.45C130.008 15.9167 130.101 15.3 130.101 14.6C130.101 13.8933 130.008 13.2767 129.821 12.75C129.641 12.2167 129.358 11.8033 128.971 11.51C128.584 11.21 128.084 11.06 127.471 11.06C126.824 11.06 126.291 11.22 125.871 11.54C125.451 11.8533 125.141 12.28 124.941 12.82C124.741 13.3533 124.641 13.9467 124.641 14.6C124.641 15.26 124.738 15.86 124.931 16.4C125.131 16.9333 125.434 17.3567 125.841 17.67C126.248 17.9833 126.764 18.14 127.391 18.14ZM130.101 20V12.42H129.801V5.6H132.231V20H130.101ZM139.945 20.3C138.851 20.3 137.891 20.0633 137.065 19.59C136.238 19.1167 135.591 18.46 135.125 17.62C134.665 16.78 134.435 15.8133 134.435 14.72C134.435 13.54 134.661 12.5167 135.115 11.65C135.568 10.7767 136.198 10.1 137.005 9.62C137.811 9.14 138.745 8.9 139.805 8.9C140.925 8.9 141.875 9.16333 142.655 9.69C143.441 10.21 144.025 10.9467 144.405 11.9C144.785 12.8533 144.928 13.9767 144.835 15.27H142.445V14.39C142.438 13.2167 142.231 12.36 141.825 11.82C141.418 11.28 140.778 11.01 139.905 11.01C138.918 11.01 138.185 11.3167 137.705 11.93C137.225 12.5367 136.985 13.4267 136.985 14.6C136.985 15.6933 137.225 16.54 137.705 17.14C138.185 17.74 138.885 18.04 139.805 18.04C140.398 18.04 140.908 17.91 141.335 17.65C141.768 17.3833 142.101 17 142.335 16.5L144.715 17.22C144.301 18.1933 143.661 18.95 142.795 19.49C141.935 20.03 140.985 20.3 139.945 20.3ZM136.225 15.27V13.45H143.655V15.27H136.225ZM149.891 20.3C149.111 20.3 148.451 20.1533 147.911 19.86C147.371 19.56 146.961 19.1633 146.681 18.67C146.407 18.1767 146.271 17.6333 146.271 17.04C146.271 16.52 146.357 16.0533 146.531 15.64C146.704 15.22 146.971 14.86 147.331 14.56C147.691 14.2533 148.157 14.0033 148.731 13.81C149.164 13.67 149.671 13.5433 150.251 13.43C150.837 13.3167 151.471 13.2133 152.151 13.12C152.837 13.02 153.554 12.9133 154.301 12.8L153.441 13.29C153.447 12.5433 153.281 11.9933 152.941 11.64C152.601 11.2867 152.027 11.11 151.221 11.11C150.734 11.11 150.264 11.2233 149.811 11.45C149.357 11.6767 149.041 12.0667 148.861 12.62L146.661 11.93C146.927 11.0167 147.434 10.2833 148.181 9.73C148.934 9.17667 149.947 8.9 151.221 8.9C152.181 8.9 153.024 9.05667 153.751 9.37C154.484 9.68333 155.027 10.1967 155.381 10.91C155.574 11.29 155.691 11.68 155.731 12.08C155.771 12.4733 155.791 12.9033 155.791 13.37V20H153.681V17.66L154.031 18.04C153.544 18.82 152.974 19.3933 152.321 19.76C151.674 20.12 150.864 20.3 149.891 20.3ZM150.371 18.38C150.917 18.38 151.384 18.2833 151.771 18.09C152.157 17.8967 152.464 17.66 152.691 17.38C152.924 17.1 153.081 16.8367 153.161 16.59C153.287 16.2833 153.357 15.9333 153.371 15.54C153.391 15.14 153.401 14.8167 153.401 14.57L154.141 14.79C153.414 14.9033 152.791 15.0033 152.271 15.09C151.751 15.1767 151.304 15.26 150.931 15.34C150.557 15.4133 150.227 15.4967 149.941 15.59C149.661 15.69 149.424 15.8067 149.231 15.94C149.037 16.0733 148.887 16.2267 148.781 16.4C148.681 16.5733 148.631 16.7767 148.631 17.01C148.631 17.2767 148.697 17.5133 148.831 17.72C148.964 17.92 149.157 18.08 149.411 18.2C149.671 18.32 149.991 18.38 150.371 18.38ZM162.564 20.3C161.231 20.3 160.147 20 159.314 19.4C158.481 18.8 157.974 17.9567 157.794 16.87L160.254 16.49C160.381 17.0233 160.661 17.4433 161.094 17.75C161.527 18.0567 162.074 18.21 162.734 18.21C163.314 18.21 163.761 18.0967 164.074 17.87C164.394 17.6367 164.554 17.32 164.554 16.92C164.554 16.6733 164.494 16.4767 164.374 16.33C164.261 16.1767 164.007 16.03 163.614 15.89C163.221 15.75 162.617 15.5733 161.804 15.36C160.897 15.12 160.177 14.8633 159.644 14.59C159.111 14.31 158.727 13.98 158.494 13.6C158.261 13.22 158.144 12.76 158.144 12.22C158.144 11.5467 158.321 10.96 158.674 10.46C159.027 9.96 159.521 9.57667 160.154 9.31C160.787 9.03667 161.534 8.9 162.394 8.9C163.234 8.9 163.977 9.03 164.624 9.29C165.277 9.55 165.804 9.92 166.204 10.4C166.604 10.88 166.851 11.4433 166.944 12.09L164.484 12.53C164.424 12.07 164.214 11.7067 163.854 11.44C163.501 11.1733 163.027 11.0233 162.434 10.99C161.867 10.9567 161.411 11.0433 161.064 11.25C160.717 11.45 160.544 11.7333 160.544 12.1C160.544 12.3067 160.614 12.4833 160.754 12.63C160.894 12.7767 161.174 12.9233 161.594 13.07C162.021 13.2167 162.654 13.3967 163.494 13.61C164.354 13.83 165.041 14.0833 165.554 14.37C166.074 14.65 166.447 14.9867 166.674 15.38C166.907 15.7733 167.024 16.25 167.024 16.81C167.024 17.8967 166.627 18.75 165.834 19.37C165.047 19.99 163.957 20.3 162.564 20.3Z" fill="white"/>
<defs>
<linearGradient id="paint0_linear_1_408" x1="0" y1="11.5" x2="23" y2="11.5" gradientUnits="userSpaceOnUse">
<stop stop-color="#4C85FA"/>
<stop offset="1" stop-color="#236BFE"/>
</linearGradient>
</defs>
</svg>
