<svg width="426" height="251" viewBox="0 0 426 251" fill="none" xmlns="http://www.w3.org/2000/svg">
<path fill-rule="evenodd" clip-rule="evenodd" d="M88.8125 200.073L36.9635 188.74C36.8281 188.708 36.6979 188.677 36.5677 188.609C35.6093 188.38 34.6822 188.016 33.8541 187.589C32.0364 186.729 30.5208 185.51 29.6927 184.063C29.1979 183.208 28.7031 181.823 29.1979 180.276C29.7916 178.526 31.5416 177.177 33.8229 176.354C34.651 176.057 35.5729 175.859 36.5312 175.729C37.0937 175.661 37.5885 175.531 38.1875 175.531C39.276 175.531 40.3645 175.661 41.4218 175.891L63.8281 180.802L66.5416 181.396L93.3072 187.224C93.4375 187.26 93.5729 187.323 93.7031 187.359C94.6614 187.589 95.5885 187.948 96.4114 188.344C98.2291 189.234 99.7187 190.422 100.542 191.87C101.042 192.729 101.536 194.109 101.042 195.661C100.443 197.406 98.6927 198.755 96.4114 199.578C95.0937 200.042 93.6718 200.37 92.0833 200.37C91.0937 200.37 90.0677 200.24 89.1093 200.042C89.0104 200.01 88.9114 200.042 88.8125 200.01V200.073ZM81.8072 189.073C81.6406 189.797 82.1041 190.521 82.8333 190.682L93.276 192.958C93.375 192.99 93.4739 192.99 93.5729 192.99C93.6041 192.99 93.6354 192.958 93.7031 192.958C94.2656 192.927 94.7604 192.531 94.927 191.938C95.0937 191.214 94.6302 190.49 93.8697 190.323L93.7031 190.292L83.427 188.047C82.6979 187.885 81.9739 188.344 81.8072 189.073Z" fill="black"/>
<path fill-rule="evenodd" clip-rule="evenodd" d="M41.4218 192.76L75.1302 200.104L87.526 202.807L93.3072 204.057C96.6093 204.786 99.3229 206.531 100.578 208.703C101.073 209.594 101.568 210.943 101.073 212.495C100.146 215.26 96.4791 217.203 92.0833 217.203C91.3593 217.203 90.5989 217.073 89.8385 216.974C89.5052 216.906 89.1406 216.943 88.8125 216.844L86.6666 216.38L49.7864 208.307L46.4479 207.583L36.9635 205.51C33.6562 204.787 30.9479 203.073 29.6927 200.865C29.1979 200.005 28.7031 198.625 29.1979 197.078C29.7916 195.328 31.5416 193.979 33.8229 193.156C34.651 192.859 35.5729 192.661 36.5312 192.531C37.0937 192.464 37.5885 192.333 38.1875 192.333C39.276 192.333 40.3645 192.464 41.4218 192.693V192.76ZM83.2291 207.156L93.276 209.333C93.375 209.365 93.4739 209.365 93.5729 209.365C94.1979 209.365 94.7604 208.938 94.8906 208.307C95.0572 207.583 94.5937 206.859 93.8333 206.698L83.3593 204.391C82.6302 204.224 81.9062 204.688 81.7395 205.411C81.7083 205.641 81.8072 205.807 81.875 206.005C82.0052 206.464 82.302 206.891 82.7968 207.026L83.2291 207.125V207.156Z" fill="black"/>
<path fill-rule="evenodd" clip-rule="evenodd" d="M47.2396 210.844L87.8542 219.74L90.8959 220.401L93.3073 220.927C96.5782 221.651 99.3229 223.365 100.578 225.573C101.073 226.464 101.568 227.813 101.073 229.359C100.146 232.13 96.4792 234.073 92.1146 234.073C91.5573 234.073 90.9948 233.938 90.4323 233.875C89.9375 233.807 89.375 233.807 88.8438 233.708L87.724 233.448L41.6563 223.365L39.0105 222.807L36.9636 222.344C33.6563 221.62 30.948 219.906 29.6927 217.698C28.9636 216.448 28.8021 215.13 29.1979 213.912C30.1198 211.141 33.7917 209.198 38.1511 209.198C39.2448 209.198 40.3334 209.333 41.3907 209.563L44.2344 210.188L47.2084 210.844H47.2396ZM83.4271 221.224C82.698 221.057 81.974 221.521 81.8073 222.245C81.6407 223 82.1042 223.693 82.8334 223.859L88.7813 225.146L91.5573 225.734L93.2761 226.13C93.375 226.167 93.474 226.167 93.5729 226.167C94.1979 226.167 94.7604 225.734 94.8907 225.109C95.0573 224.385 94.5938 223.662 93.8334 223.495L91.224 222.938L88.4479 222.313L83.3594 221.224H83.4271Z" fill="black"/>
<mask id="mask0_253_182" style="mask-type:luminance" maskUnits="userSpaceOnUse" x="40" y="225" width="48" height="26">
<path d="M40 225.667H88V250.016H40V225.667Z" fill="white"/>
</mask>
<g mask="url(#mask0_253_182)">
<path fill-rule="evenodd" clip-rule="evenodd" d="M41.3595 226.099L86.7657 236.016C83.0313 244.25 74.7657 250.016 65.1199 250.016C52.0001 250.016 41.323 239.375 41.323 226.297C41.323 226.229 41.3595 226.167 41.3595 226.099ZM60.9532 244.943C61.1876 244.219 60.7553 243.458 60.0626 243.26C54.5782 241.615 50.2136 237.432 48.3647 232.031C48.099 231.339 47.3386 230.974 46.6459 231.172C45.9532 231.401 45.5522 232.193 45.7865 232.885C47.9324 239.109 52.9897 243.953 59.3022 245.833C59.4324 245.865 59.5678 245.896 59.698 245.896C60.2917 245.896 60.823 245.536 60.9897 244.911L60.9532 244.943Z" fill="black"/>
</g>
<mask id="mask1_253_182" style="mask-type:luminance" maskUnits="userSpaceOnUse" x="0" y="36" width="132" height="151">
<path d="M0.229248 36.3333H131.958V187H0.229248V36.3333Z" fill="white"/>
</mask>
<g mask="url(#mask1_253_182)">
<path d="M105.135 147.562C98.3646 157.083 92.5469 165.318 92.1146 171.776V183.963L94.1354 184.39L96.8438 184.984L99.9479 185.677V172.036C100.115 170.062 101.469 167.26 103.453 163.969C105.599 160.411 108.51 156.292 111.516 152.042C112.443 150.755 113.203 149.635 113.729 148.911C114.589 147.693 115.349 146.604 115.943 145.75C119.448 140.677 124.339 132.672 127.776 123.51C130.188 117.057 131.906 110.005 131.906 103.021C131.906 84.9373 124.536 68.5311 112.604 56.6717C100.677 44.7759 84.25 37.4321 66.0781 37.4321C47.9323 37.4321 31.4792 44.7759 19.5781 56.6717C7.65104 68.5623 0.28125 84.9373 0.28125 103.021C0.28125 110.036 2 117.057 4.41146 123.547C7.84896 132.739 12.7396 140.708 16.2448 145.781C16.7708 146.542 17.5313 147.661 18.4583 148.943C18.9531 149.672 19.776 150.792 20.6719 152.073C23.0833 155.469 25.4271 158.797 27.3125 161.693C29.1979 164.594 30.6823 167.26 31.5417 169.536L32.0365 170.818L33.3958 171.114L36.4688 171.776L40.6302 172.698L39.474 168.614C38.6146 165.614 36.9271 162.323 34.6823 158.729C32.5 155.203 29.8594 151.515 27.0833 147.562C26.1563 146.245 25.3958 145.187 24.901 144.5C24.3073 143.64 23.5781 142.62 22.75 141.401C20.0104 137.417 16.3437 131.515 13.3698 124.698C10.4271 117.979 8.14583 110.432 8.17708 103.021C8.17708 87.078 14.6875 72.6144 25.1667 62.1717C35.6406 51.729 50.1458 45.2394 66.1406 45.2394C82.1354 45.2394 96.6094 51.729 107.12 62.1717C117.63 72.6457 124.141 87.1092 124.141 103.021C124.141 109.083 122.62 115.245 120.469 120.943C117.333 129.276 112.771 136.656 109.568 141.37C108.609 142.75 107.219 144.698 105.865 146.64L105.234 147.562H105.135Z" fill="black"/>
</g>
<mask id="mask2_253_182" style="mask-type:luminance" maskUnits="userSpaceOnUse" x="30" y="0" width="72" height="35">
<path d="M30.6667 0.104248H101.333V35.0001H30.6667V0.104248Z" fill="white"/>
</mask>
<g mask="url(#mask2_253_182)">
<path fill-rule="evenodd" clip-rule="evenodd" d="M67.1668 29.5261C69.8751 29.5261 72.0887 27.3178 72.0887 24.6147V5.01571C72.0887 2.31258 69.8751 0.104248 67.1668 0.104248C64.4584 0.104248 62.2449 2.31258 62.2449 5.01571V24.6147C62.2449 27.3178 64.4584 29.5261 67.1668 29.5261ZM85.9689 33.3126C83.4584 32.2917 82.2709 29.3907 83.2918 26.922L90.797 8.80216C91.8178 6.30216 94.7293 5.11467 97.2084 6.1355C99.7189 7.15633 100.906 10.0574 99.8855 12.5261L92.3803 30.6459C91.3595 33.1511 88.448 34.3334 85.9689 33.3126ZM46.1824 34.172C48.6928 33.1511 49.8855 30.2501 48.8595 27.7813L41.3595 9.66154C40.3334 7.15633 37.4272 5.96883 34.948 6.98966C32.4376 8.0105 31.2449 10.9115 32.2709 13.3803L39.7709 31.5001C40.797 34.0053 43.7032 35.1928 46.1824 34.172Z" fill="#233DFF"/>
</g>
<path fill-rule="evenodd" clip-rule="evenodd" d="M63.4322 86.651C63.5312 85.8229 64.2916 85.2656 65.1197 85.3646C65.9426 85.4635 66.5051 86.2188 66.4062 87.0469C66.2083 88.5573 66.6405 90.0104 67.4999 91.1615C68.3541 92.2813 69.6458 93.1042 71.1666 93.3021C71.9895 93.401 72.552 94.1615 72.453 94.9844C72.3541 95.8073 71.5937 96.3698 70.7708 96.2708C68.4218 95.9375 66.4374 94.7187 65.1197 92.974C65.1197 92.9427 65.0833 92.9427 65.0833 92.9063C63.2343 93.4687 59.6666 93.9948 57.2551 90.8021C56.7551 90.1406 56.8905 89.1875 57.552 88.6927C58.2135 88.1979 59.1718 88.3281 59.6666 88.9896C60.8228 90.5052 62.5728 90.4375 63.7291 90.1719C63.401 89.0521 63.302 87.8698 63.4635 86.651H63.4322ZM87.8228 111.063C89.4739 109.411 90.4999 107.141 90.4999 104.604C90.4999 102.099 89.4739 99.8281 87.8228 98.1458C86.1666 96.5 83.8905 95.4792 81.3437 95.4792C80.5155 95.4792 79.8228 94.8177 79.8228 93.9635C79.8228 93.1406 80.5155 92.4479 81.3437 92.4479C84.7135 92.4479 87.7551 93.7969 89.9374 96.0052C92.151 98.2135 93.5051 101.245 93.5051 104.573C93.5051 105.495 93.4062 106.38 93.2083 107.24C94.1353 107.5 95.0937 107.667 96.1145 107.667C101.469 107.667 105.865 103.547 106.292 98.3125C108.609 96.9271 110.161 94.3906 110.161 91.4896C110.161 88.0677 107.979 85.1354 104.937 84.0469C103.88 86.0208 102.297 87.6042 100.443 88.724C97.7655 90.3073 94.4947 90.8646 91.2239 90.0417L91.0937 90.0104L90.927 89.9115C90.1978 89.5469 89.8697 88.625 90.2655 87.901C90.5989 87.276 91.3228 86.9479 91.9843 87.1094C94.4322 87.7344 96.9062 87.3073 98.927 86.1198C100.943 84.9375 102.495 82.9948 103.12 80.5521C103.453 79.2708 103.484 77.9531 103.255 76.6979C102.099 73.8646 99.8853 71.2969 96.9062 69.5833C96.776 69.5521 96.6458 69.5208 96.5103 69.4844C96.1822 69.3854 95.8853 69.224 95.6874 68.9583C95.3228 68.7917 94.927 68.5937 94.5312 68.4635C90.2968 66.849 85.8697 67.1146 82.3697 68.8281C80.552 66.0573 77.4114 64.25 73.8437 64.25C71.6614 64.25 69.6458 64.9375 67.9947 66.0938C68.2916 66.849 68.4895 67.6406 68.6197 68.4323C69.1145 71.4948 68.4583 74.724 66.5051 77.4583C66.078 78.0521 65.2812 78.2813 64.6197 77.9167C63.8958 77.5573 63.5624 76.6354 63.9635 75.9115L64.0937 75.7135C65.5833 73.6719 66.078 71.1979 65.6822 68.9271C65.4478 67.6094 64.953 66.3229 64.1614 65.2031C62.5051 64.0833 60.526 63.4219 58.4114 63.4219C52.9895 63.4219 48.5312 67.6406 48.1978 72.9792C46.4478 71.5625 44.1978 70.7031 41.7864 70.7031C41.3905 70.7031 41.026 70.7396 40.6614 70.7708C40.4999 70.901 40.3333 71 40.1041 71.0313C37.6562 71.6615 35.7083 73.2083 34.5155 75.2188C33.328 77.2292 32.8958 79.6979 33.526 82.1354C34.151 84.5729 35.7083 86.5156 37.7239 87.7031C39.7395 88.8906 42.2187 89.3177 44.6614 88.6927L44.8593 88.6563H45.0572C45.8853 88.6563 46.578 89.3177 46.578 90.1719C46.578 90.901 46.052 91.526 45.3905 91.6563C42.151 92.4479 38.9114 91.8854 36.2343 90.3073C33.5572 88.724 31.4791 86.1198 30.651 82.8594L30.6197 82.6615C30.4843 82.1354 30.4218 81.6094 30.3541 81.0833C25.6926 82.0365 22.1926 86.1198 22.1926 91.0625C22.1926 93.9271 23.3801 96.5625 25.328 98.4115C23.8749 100.156 23.0155 102.396 23.0155 104.865C23.0155 106.479 23.3801 108.031 24.0728 109.38C24.2083 109.479 24.3072 109.578 24.4062 109.708C25.8593 111.75 28.0416 113.005 30.3541 113.401C32.6666 113.797 35.1093 113.266 37.1614 111.818C39.2083 110.37 40.4635 108.193 40.8645 105.922C41.2603 103.615 40.7291 101.177 39.276 99.1354L39.1458 98.9375C38.7812 98.1771 39.078 97.2917 39.802 96.9271C40.4635 96.599 41.2916 96.7969 41.6874 97.3906C43.6353 100.125 44.2968 103.349 43.802 106.417C43.3072 109.479 41.6197 112.344 38.8801 114.286C38.5155 114.552 38.151 114.781 37.7551 115.016C37.7551 115.115 37.7551 115.214 37.7551 115.313C37.7551 120.943 42.3176 125.49 47.9687 125.49C50.9739 125.49 53.6822 124.203 55.5364 122.13L55.6666 121.964C55.8333 122.031 55.9947 122.13 56.1301 122.193C56.2968 127.698 54.5416 134.516 50.776 142.688C59.6301 137.547 66.0416 129.146 70.0416 117.552C70.2395 117.552 70.4374 117.583 70.6718 117.583C73.578 117.583 76.1249 116 77.5103 113.698C77.2135 111.688 76.2864 109.906 74.9322 108.526C73.2812 106.875 70.9999 105.854 68.4583 105.854C67.6301 105.854 66.9374 105.161 66.9374 104.339C66.9374 103.516 67.5989 102.823 68.4583 102.823C71.828 102.823 74.8645 104.177 77.0468 106.38C78.9999 108.328 80.2864 110.896 80.552 113.797C80.6145 113.828 80.6822 113.859 80.7499 113.896C80.9478 113.797 81.2135 113.729 81.4426 113.729C83.953 113.729 86.2343 112.708 87.9218 111.063H87.8228ZM75.0624 76.9635C74.5676 76.3073 74.703 75.349 75.3645 74.8542C76.0208 74.3594 76.9791 74.4948 77.4791 75.151C78.6353 76.6667 80.3853 76.599 81.5416 76.3385C81.2135 75.2188 81.1145 74.0313 81.276 72.8125C81.3749 71.9896 82.1353 71.4271 82.9635 71.526C83.7916 71.625 84.3489 72.3854 84.2499 73.2083C84.052 74.724 84.4843 76.1719 85.3437 77.3281C86.203 78.4479 87.4895 79.2344 89.0103 79.4688C89.8385 79.5677 90.401 80.3229 90.2968 81.1458C90.1978 81.9687 89.4426 82.5313 88.6145 82.4323C86.2655 82.1042 84.2864 80.8854 82.9635 79.1354C82.9635 79.1042 82.9322 79.1042 82.9322 79.0729C81.078 79.6302 77.5103 80.1615 75.0989 76.9635H75.0624ZM49.9478 104.703C52.2968 105.031 54.2812 106.25 55.5989 107.995C55.5989 108.031 55.6353 108.031 55.6353 108.063C57.4843 107.5 61.052 106.974 63.4635 110.172C63.9635 110.828 63.828 111.786 63.1666 112.281C62.5051 112.771 61.5468 112.641 61.052 111.984C59.8958 110.469 58.1458 110.531 56.9895 110.797C57.3176 111.917 57.4166 113.104 57.2551 114.323C57.1562 115.146 56.3958 115.703 55.5676 115.604C54.7395 115.505 54.1822 114.75 54.2812 113.927C54.4791 112.411 54.0468 110.964 53.1874 109.807C52.328 108.688 51.0416 107.896 49.5208 107.667C48.6926 107.568 48.1301 106.813 48.2291 105.984C48.328 105.161 49.0885 104.604 49.9166 104.703H49.9478Z" fill="#233DFF"/>
<path d="M153.542 105.736H171.646C175.88 105.736 179.255 106.772 181.771 108.84C184.281 110.897 185.542 113.506 185.542 116.673C185.542 121.381 182.792 124.569 177.292 126.236C180.094 126.626 182.333 127.793 184 129.736C185.667 131.668 186.5 133.939 186.5 136.548C186.5 139.881 185.276 142.527 182.833 144.486C180.401 146.444 177.005 147.423 172.646 147.423H153.542V105.736ZM163.688 113.465V122.486H170.333C171.802 122.486 172.984 122.111 173.875 121.361C174.76 120.611 175.208 119.496 175.208 118.006C175.208 116.522 174.76 115.397 173.875 114.631C172.984 113.855 171.802 113.465 170.333 113.465H163.688ZM163.688 139.694H171.354C172.74 139.694 173.885 139.288 174.792 138.465C175.708 137.631 176.167 136.486 176.167 135.027C176.167 133.559 175.729 132.381 174.854 131.506C173.979 130.631 172.844 130.194 171.458 130.194H163.688V139.694Z" fill="black"/>
<path d="M211.941 137.048C213.284 135.621 213.962 133.559 213.962 130.861C213.962 128.168 213.264 126.121 211.878 124.715C210.503 123.314 208.863 122.611 206.962 122.611C205.055 122.611 203.425 123.314 202.066 124.715C200.701 126.121 200.024 128.168 200.024 130.861C200.024 133.559 200.722 135.621 202.128 137.048C203.529 138.465 205.18 139.173 207.087 139.173C208.988 139.173 210.607 138.465 211.941 137.048ZM194.691 143.152C191.357 140.027 189.691 135.913 189.691 130.798C189.691 125.689 191.347 121.606 194.67 118.548C198.003 115.481 202.118 113.944 207.024 113.944C211.925 113.944 216.029 115.481 219.337 118.548C222.639 121.606 224.295 125.689 224.295 130.798C224.295 135.913 222.649 140.027 219.357 143.152C216.076 146.277 211.982 147.84 207.066 147.84C202.159 147.84 198.034 146.277 194.691 143.152Z" fill="black"/>
<path d="M239.489 114.298V120.465C241.864 116.121 245.031 113.944 248.989 113.944V124.257H246.489C244.156 124.257 242.406 124.814 241.239 125.923C240.072 127.038 239.489 128.981 239.489 131.757V147.423H229.343V114.298H239.489Z" fill="black"/>
<path d="M267.09 147.84C262.267 147.84 258.308 146.288 255.215 143.173C252.131 140.064 250.59 135.939 250.59 130.798C250.59 125.647 252.121 121.548 255.194 118.507C258.261 115.465 262.225 113.944 267.09 113.944C271.965 113.944 275.996 115.455 279.194 118.465C282.402 121.465 284.006 125.642 284.006 130.986C284.006 132.126 283.928 133.189 283.777 134.173H260.985C261.178 135.647 261.829 136.85 262.944 137.777C264.053 138.71 265.246 139.173 266.527 139.173C267.819 139.173 268.777 139.048 269.402 138.798C270.038 138.538 270.506 138.277 270.798 138.027C271.1 137.767 271.491 137.335 271.965 136.736H282.944C281.996 140.059 280.095 142.736 277.235 144.777C274.386 146.819 271.006 147.84 267.09 147.84ZM273.444 127.819C273.288 126.277 272.616 125.027 271.423 124.069C270.241 123.1 268.84 122.611 267.215 122.611C265.59 122.611 264.22 123.1 263.11 124.069C261.996 125.027 261.308 126.277 261.048 127.819H273.444Z" fill="black"/>
<path d="M309.225 136.923C310.693 135.496 311.433 133.475 311.433 130.861C311.433 128.251 310.693 126.246 309.225 124.84C307.766 123.423 306.084 122.715 304.183 122.715C302.292 122.715 300.61 123.434 299.141 124.861C297.683 126.293 296.954 128.314 296.954 130.923C296.954 133.538 297.683 135.543 299.141 136.944C300.61 138.35 302.292 139.048 304.183 139.048C306.084 139.048 307.766 138.34 309.225 136.923ZM291.016 143.09C288.084 139.923 286.62 135.871 286.62 130.923C286.62 125.965 288.084 121.897 291.016 118.715C293.943 115.538 297.516 113.944 301.725 113.944C305.943 113.944 309.183 115.506 311.433 118.631V103.486H321.6V147.423H311.433V142.611C308.985 146.1 305.704 147.84 301.579 147.84C297.464 147.84 293.943 146.256 291.016 143.09Z" fill="black"/>
<path d="M348.881 137.048C350.225 135.621 350.902 133.559 350.902 130.861C350.902 128.168 350.204 126.121 348.819 124.715C347.444 123.314 345.803 122.611 343.902 122.611C341.996 122.611 340.366 123.314 339.006 124.715C337.642 126.121 336.965 128.168 336.965 130.861C336.965 133.559 337.663 135.621 339.069 137.048C340.47 138.465 342.121 139.173 344.027 139.173C345.928 139.173 347.548 138.465 348.881 137.048ZM331.631 143.152C328.298 140.027 326.631 135.913 326.631 130.798C326.631 125.689 328.288 121.606 331.611 118.548C334.944 115.481 339.058 113.944 343.965 113.944C348.866 113.944 352.97 115.481 356.277 118.548C359.579 121.606 361.236 125.689 361.236 130.798C361.236 135.913 359.59 140.027 356.298 143.152C353.017 146.277 348.923 147.84 344.006 147.84C339.1 147.84 334.975 146.277 331.631 143.152Z" fill="black"/>
<path d="M376.43 114.298V119.152C378.523 115.684 381.872 113.944 386.471 113.944C388.914 113.944 391.096 114.501 393.013 115.611C394.94 116.71 396.44 118.288 397.513 120.34C398.732 118.413 400.325 116.861 402.284 115.694C404.242 114.527 406.43 113.944 408.846 113.944C412.888 113.944 416.096 115.194 418.471 117.694C420.846 120.184 422.034 123.642 422.034 128.069V147.423H411.93V129.423C411.93 127.298 411.367 125.652 410.242 124.486C409.117 123.309 407.56 122.715 405.575 122.715C403.601 122.715 402.055 123.309 400.93 124.486C399.805 125.652 399.242 127.298 399.242 129.423V147.423H389.138V129.423C389.138 127.298 388.575 125.652 387.45 124.486C386.325 123.309 384.768 122.715 382.784 122.715C380.81 122.715 379.252 123.309 378.117 124.486C376.992 125.652 376.43 127.298 376.43 129.423V147.423H366.284V114.298H376.43Z" fill="black"/>
<path d="M270.529 202.726V172.539H277.883V202.726H270.529Z" fill="#233DFF"/>
<path d="M307.751 195.122C308.819 194.08 309.355 192.617 309.355 190.726C309.355 188.841 308.819 187.388 307.751 186.372C306.694 185.346 305.48 184.83 304.105 184.83C302.73 184.83 301.506 185.351 300.438 186.393C299.381 187.424 298.855 188.882 298.855 190.768C298.855 192.658 299.381 194.117 300.438 195.143C301.506 196.158 302.73 196.664 304.105 196.664C305.48 196.664 306.694 196.153 307.751 195.122ZM294.563 199.58C292.438 197.289 291.376 194.351 291.376 190.768C291.376 187.184 292.438 184.242 294.563 181.934C296.688 179.632 299.272 178.476 302.313 178.476C305.366 178.476 307.715 179.611 309.355 181.872V170.914H316.709V202.726H309.355V199.247C307.574 201.763 305.194 203.018 302.209 203.018C299.235 203.018 296.688 201.872 294.563 199.58Z" fill="#233DFF"/>
<path d="M342.16 203.018C338.66 203.018 335.79 201.893 333.556 199.643C331.316 197.393 330.201 194.408 330.201 190.684C330.201 186.966 331.311 183.997 333.535 181.789C335.753 179.58 338.628 178.476 342.16 178.476C345.686 178.476 348.608 179.57 350.931 181.747C353.248 183.929 354.41 186.95 354.41 190.809C354.41 191.643 354.352 192.424 354.243 193.143H337.722C337.873 194.2 338.347 195.07 339.139 195.747C339.941 196.414 340.811 196.747 341.743 196.747C342.67 196.747 343.368 196.658 343.826 196.476C344.285 196.283 344.618 196.096 344.826 195.914C345.045 195.721 345.332 195.408 345.681 194.976H353.639C352.957 197.393 351.582 199.341 349.514 200.809C347.441 202.283 344.993 203.018 342.16 203.018ZM346.764 188.539C346.649 187.414 346.165 186.507 345.306 185.809C344.441 185.101 343.42 184.747 342.243 184.747C341.061 184.747 340.066 185.101 339.264 185.809C338.472 186.507 337.972 187.414 337.764 188.539H346.764Z" fill="#233DFF"/>
<path d="M382.564 195.122C383.632 194.08 384.169 192.617 384.169 190.726C384.169 188.841 383.632 187.388 382.564 186.372C381.507 185.346 380.294 184.83 378.919 184.83C377.544 184.83 376.32 185.351 375.252 186.393C374.195 187.424 373.669 188.882 373.669 190.768C373.669 192.658 374.195 194.117 375.252 195.143C376.32 196.158 377.544 196.664 378.919 196.664C380.294 196.664 381.507 196.153 382.564 195.122ZM369.377 199.58C367.252 197.289 366.189 194.351 366.189 190.768C366.189 187.184 367.252 184.242 369.377 181.934C371.502 179.632 374.085 178.476 377.127 178.476C380.179 178.476 382.528 179.611 384.169 181.872V178.726H391.523V202.726H384.169V199.247C382.387 201.763 380.007 203.018 377.023 203.018C374.049 203.018 371.502 201.872 369.377 199.58Z" fill="#233DFF"/>
<path d="M405.14 185.955C405.14 183.83 406.041 182.054 407.848 180.622C409.65 179.195 412.098 178.476 415.182 178.476C418.265 178.476 420.749 179.179 422.64 180.58C424.541 181.986 425.546 183.908 425.661 186.351H418.14C418.057 185.518 417.765 184.95 417.265 184.643C416.775 184.341 416.046 184.184 415.078 184.184C413.161 184.184 412.203 184.778 412.203 185.955C412.203 187.013 413.374 187.742 415.723 188.143C418.098 188.549 420.265 189.164 422.223 189.997C423.223 190.403 424.057 191.07 424.723 191.997C425.4 192.929 425.744 194.07 425.744 195.414C425.744 197.653 424.775 199.476 422.848 200.893C420.932 202.309 418.505 203.018 415.578 203.018C412.661 203.018 410.229 202.351 408.286 201.018C406.338 199.684 405.275 197.721 405.098 195.122H412.64C412.833 196.58 413.859 197.309 415.723 197.309C416.583 197.309 417.291 197.111 417.848 196.705C418.416 196.304 418.703 195.789 418.703 195.164C418.703 194.528 418.229 194.028 417.286 193.664C416.354 193.289 415.229 192.976 413.911 192.726C412.588 192.466 411.265 192.138 409.932 191.747C408.609 191.361 407.479 190.684 406.536 189.726C405.604 188.757 405.14 187.497 405.14 185.955Z" fill="#233DFF"/>
</svg>
